<svg
  width="31"
  height="30"
  viewBox="0 0 31 30"
  fill="none"
  xmlns="http://www.w3.org/2000/svg"
>
  <path
    d="M7.90381 6.20438V4.375C7.90381 3.87772 8.10135 3.40081 8.45298 3.04917C8.80461 2.69754 9.28153 2.5 9.77881 2.5H26.0288C26.5261 2.5 27.003 2.69754 27.3546 3.04917C27.7063 3.40081 27.9038 3.87772 27.9038 4.375V20.625C27.9038 21.1223 27.7063 21.5992 27.3546 21.9508C27.003 22.3025 26.5261 22.5 26.0288 22.5H24.1644"
    stroke="white"
    stroke-width="2"
  />
  <path
    d="M22.2788 6.25H4.77881C3.74327 6.25 2.90381 7.08947 2.90381 8.125V25.625C2.90381 26.6605 3.74327 27.5 4.77881 27.5H22.2788C23.3143 27.5 24.1538 26.6605 24.1538 25.625V8.125C24.1538 7.08947 23.3143 6.25 22.2788 6.25Z"
    stroke="white"
    stroke-width="2"
    stroke-linejoin="round"
  />
  <path
    d="M11.9307 14.4433L15.2382 10.9995C16.1457 10.0926 17.6363 10.112 18.5682 11.0445C19.5007 11.9758 19.5207 13.467 18.6132 14.3745L17.4195 15.6389M8.82197 17.9664C8.50322 18.2851 7.84384 18.9226 7.84384 18.9226C6.93634 19.8289 6.91134 21.4464 7.84384 22.3789C8.77509 23.3101 10.2663 23.3301 11.1738 22.4226L14.4013 19.4926"
    stroke="white"
    stroke-width="2"
    stroke-linecap="round"
    stroke-linejoin="round"
  />
  <path
    d="M12.0693 17.705C11.6544 17.2924 11.4034 16.7431 11.3631 16.1594C11.339 15.8319 11.3856 15.5032 11.4997 15.1953C11.6138 14.8874 11.7927 14.6077 12.0243 14.375M14.3562 16.1631C15.2875 17.095 15.3081 18.5862 14.4006 19.4931"
    stroke="white"
    stroke-width="2"
    stroke-linecap="round"
    stroke-linejoin="round"
  />
</svg>
