<svg width="26" height="22" viewBox="0 0 26 22" fill="none" xmlns="http://www.w3.org/2000/svg">
<path d="M25.5 2.98527C24.5802 3.40769 23.5925 3.69281 22.554 3.81962C23.6128 3.16377 24.4263 2.12508 24.81 0.887693C23.8183 1.49427 22.7212 1.93689 21.5529 2.17354C20.6167 1.14373 19.2836 0.5 17.8075 0.5C14.9747 0.5 12.6796 2.873 12.6796 5.80088C12.6796 6.21604 12.7242 6.6215 12.8117 7.00919C8.54889 6.78789 4.76982 4.67738 2.2395 1.47004C1.79876 2.2535 1.54557 3.16377 1.54557 4.13542C1.54557 5.97535 2.45127 7.59719 3.82661 8.54865C2.98656 8.52038 2.19574 8.28292 1.50416 7.88554C1.50338 7.90735 1.50338 7.93077 1.50338 7.95177C1.50338 10.521 3.27101 12.6638 5.61769 13.1509C5.18789 13.2712 4.73465 13.3367 4.26657 13.3367C3.93523 13.3367 3.61484 13.3035 3.30226 13.2422C3.95399 15.347 5.84899 16.88 8.09252 16.9236C6.33818 18.3452 4.12669 19.194 1.72374 19.194C1.30958 19.194 0.900881 19.169 0.5 19.1197C2.76932 20.622 5.4653 21.5 8.36212 21.5C17.7957 21.5 22.9556 13.4223 22.9556 6.41635C22.9556 6.18696 22.9494 5.95758 22.94 5.72981C23.9426 4.98269 24.8115 4.04981 25.5 2.98527Z" fill="#EB5728"/>
</svg>
