<svg width="95" height="98" viewBox="0 0 95 98" fill="none" xmlns="http://www.w3.org/2000/svg">
<path fill-rule="evenodd" clip-rule="evenodd" d="M70.5679 7.61084H64.4253V9.80027C64.4256 10.5102 64.3058 11.2132 64.0721 11.8691C63.8387 12.525 63.4962 13.121 63.0646 13.623C62.6327 14.1249 62.1202 14.523 61.5562 14.7945C60.9921 15.066 60.3874 15.2054 59.7768 15.205H37.4278C36.817 15.2059 36.212 15.0667 35.6477 14.7955C35.083 14.5242 34.5702 14.1261 34.1381 13.6241C33.7062 13.1221 33.3634 12.526 33.1297 11.8698C32.8963 11.2137 32.7759 10.5104 32.7765 9.80027V7.61084H26.6338C25.0782 7.61172 23.5866 8.3306 22.4866 9.60952C21.3866 10.8885 20.7683 12.6228 20.7676 14.4315V90.9273C20.7691 92.7356 21.3876 94.4694 22.4874 95.7483C23.5872 97.0269 25.0785 97.746 26.6338 97.748H70.5876C72.1429 97.746 73.6341 97.0269 74.7341 95.7483C75.8338 94.4694 76.4523 92.7356 76.454 90.9273V14.4413C76.4421 12.6318 75.8177 10.9004 74.7161 9.62204C73.6147 8.34364 72.1243 7.62113 70.5679 7.61084ZM31.6658 35.5098H46.9504C47.2419 35.5098 47.5215 35.6445 47.7279 35.8841C47.9339 36.1237 48.0498 36.4488 48.0498 36.7881C48.0498 37.127 47.9339 37.4521 47.7279 37.6917C47.5215 37.9316 47.2419 38.0663 46.9504 38.0663H31.6658C31.3741 38.0663 31.0944 37.9316 30.8883 37.6917C30.6823 37.4521 30.5664 37.127 30.5664 36.7881C30.5664 36.4488 30.6823 36.1237 30.8883 35.8841C31.0944 35.6445 31.3741 35.5098 31.6658 35.5098ZM31.6658 41.8749H65.5135C65.7951 41.8913 66.0603 42.0332 66.2546 42.2708C66.4488 42.5084 66.557 42.8237 66.557 43.1515C66.557 43.4793 66.4488 43.7946 66.2546 44.0322C66.0603 44.2698 65.7951 44.4114 65.5135 44.4281H31.6658C31.5215 44.4281 31.3786 44.395 31.245 44.3308C31.1116 44.2665 30.9904 44.1725 30.8883 44.0535C30.7863 43.9348 30.7054 43.7939 30.6501 43.6389C30.5949 43.4839 30.5664 43.3177 30.5664 43.1499C30.5664 42.9821 30.5949 42.8156 30.6501 42.6605C30.7054 42.5055 30.7863 42.3646 30.8883 42.2459C30.9904 42.1273 31.1116 42.0332 31.245 41.9689C31.3786 41.9047 31.5215 41.8716 31.6658 41.8716V41.8749ZM31.6658 48.2203H65.5135C65.7951 48.2367 66.0603 48.3786 66.2546 48.6162C66.4488 48.8539 66.557 49.1692 66.557 49.4969C66.557 49.8247 66.4488 50.14 66.2546 50.3776C66.0603 50.6152 65.7951 50.7568 65.5135 50.7735H31.6658C31.517 50.7821 31.3681 50.7558 31.2283 50.6955C31.0885 50.6352 30.9608 50.5428 30.8525 50.4232C30.7446 50.3039 30.6586 50.1603 30.6 50.001C30.541 49.8417 30.5106 49.67 30.5106 49.4969C30.5106 49.3235 30.541 49.1521 30.6 48.9928C30.6586 48.8335 30.7446 48.6896 30.8525 48.5703C30.9608 48.451 31.0885 48.3583 31.2283 48.2983C31.3681 48.238 31.517 48.2114 31.6658 48.2203ZM31.6658 54.5592H65.5135C65.7951 54.5756 66.0603 54.7175 66.2546 54.9551C66.4488 55.1927 66.557 55.508 66.557 55.8358C66.557 56.1635 66.4488 56.4788 66.2546 56.7165C66.0603 56.9541 65.7951 57.0957 65.5135 57.1124H31.6658C31.3741 57.1124 31.0944 56.9777 30.8883 56.7378C30.6823 56.4982 30.5664 56.173 30.5664 55.8341C30.5664 55.4949 30.6823 55.1698 30.8883 54.9302C31.0944 54.6906 31.3741 54.5559 31.6658 54.5559V54.5592ZM72.0479 91.36C72.0482 91.5274 72.0202 91.6936 71.9653 91.8486C71.9103 92.004 71.8294 92.1449 71.7276 92.2636C71.6259 92.3822 71.5047 92.4766 71.3716 92.5409C71.2383 92.6051 71.0956 92.6382 70.9513 92.6382H26.197C25.9054 92.6382 25.6257 92.5035 25.4195 92.2636C25.2134 92.024 25.0975 91.6989 25.0975 91.36V21.5472C25.0975 21.2082 25.2134 20.883 25.4195 20.6433C25.6257 20.4036 25.9054 20.2689 26.197 20.2689C26.4886 20.2689 26.7681 20.4036 26.9743 20.6433C27.1805 20.883 27.2963 21.2082 27.2963 21.5472V90.0784H69.8632V39.3282C69.8632 38.989 69.979 38.6638 70.1851 38.4242C70.3914 38.1846 70.6708 38.0499 70.9626 38.0499C71.254 38.0499 71.5337 38.1846 71.74 38.4242C71.9461 38.6638 72.062 38.989 72.062 39.3282V91.3698L72.0479 91.36Z" fill="#A7DDCF"/>
<path fill-rule="evenodd" clip-rule="evenodd" d="M37.4225 12.6843H59.7715C60.4269 12.6834 61.0552 12.3803 61.5187 11.8414C61.9821 11.3025 62.2429 10.5719 62.2437 9.80983V2.87443C62.2437 2.11208 61.9832 1.38097 61.5195 0.841902C61.0558 0.30284 60.4272 0 59.7715 0H37.4225C36.7668 0 36.1379 0.30284 35.6742 0.841902C35.2107 1.38097 34.9502 2.11208 34.9502 2.87443V9.80983C34.9483 10.1879 35.0108 10.5627 35.1346 10.9124C35.2581 11.2621 35.4402 11.5799 35.6702 11.8472C35.9 12.1146 36.1734 12.3262 36.4742 12.4699C36.775 12.6136 37.0972 12.6864 37.4225 12.6843Z" fill="#13C296"/>
<path fill-rule="evenodd" clip-rule="evenodd" d="M13.1083 79.9375C13.1083 78.4301 12.7239 76.9568 12.0038 75.7038C11.2836 74.4505 10.2599 73.4737 9.06235 72.8969C7.86473 72.3204 6.54688 72.1693 5.27549 72.4633C4.0041 72.7573 2.8363 73.4832 1.91968 74.5488C1.00306 75.6147 0.378836 76.9726 0.125943 78.4508C-0.12695 79.929 0.00282715 81.4612 0.498897 82.8535C0.994963 84.2459 1.83504 85.4363 2.91286 86.2734C3.99068 87.1108 5.25787 87.5579 6.55415 87.5579C7.41496 87.5582 8.2674 87.3612 9.06275 86.9784C9.8581 86.5959 10.5808 86.0345 11.1895 85.3268C11.7982 84.6192 12.2809 83.7788 12.6102 82.8542C12.9394 81.9293 13.1087 80.9381 13.1083 79.9375Z" fill="#13C296"/>
<path fill-rule="evenodd" clip-rule="evenodd" d="M94.9885 16.4931C94.9885 15.4869 94.7317 14.5032 94.251 13.6667C93.7701 12.83 93.0865 12.1781 92.287 11.7931C91.4873 11.4082 90.6075 11.3077 89.759 11.5042C88.9102 11.7008 88.1304 12.1856 87.5187 12.8973C86.907 13.6091 86.4906 14.5157 86.322 15.5027C86.1535 16.4896 86.2406 17.5125 86.5721 18.442C86.9036 19.3714 87.4649 20.1657 88.1848 20.7242C88.9045 21.2828 89.7508 21.5805 90.6162 21.5799C91.1907 21.5799 91.7593 21.4483 92.2901 21.1926C92.8207 20.9369 93.3027 20.5622 93.7089 20.0898C94.1149 19.6174 94.4368 19.0566 94.6564 18.4395C94.876 17.8223 94.9887 17.1609 94.9885 16.4931Z" fill="#13C296"/>
</svg>
