<svg width="98" height="95" viewBox="0 0 98 95" fill="none" xmlns="http://www.w3.org/2000/svg">
<path fill-rule="evenodd" clip-rule="evenodd" d="M60.6055 28.391C60.6049 28.8932 60.7549 29.3846 61.0364 29.8023C61.3179 30.2203 61.7181 30.5462 62.1868 30.7387C62.6553 30.9313 63.1712 30.9823 63.6691 30.8844C64.1666 30.7868 64.6241 30.5453 64.9829 30.1903C65.342 29.8354 65.5866 29.3828 65.6858 28.8903C65.7849 28.3977 65.7343 27.887 65.5404 27.4228C65.3461 26.9587 65.0175 26.562 64.5956 26.2829C64.1736 26.0037 63.6778 25.8547 63.1703 25.8547C62.4913 25.857 61.8408 26.1249 61.3604 26.5999C60.88 27.075 60.6087 27.7188 60.6055 28.391Z" fill="#13C296" fill-opacity="0.7"/>
<path fill-rule="evenodd" clip-rule="evenodd" d="M32.3193 28.3909C32.3188 28.8934 32.4685 29.3845 32.7503 29.8025C33.0318 30.2205 33.4325 30.5464 33.9013 30.739C34.3701 30.9316 34.8859 30.9823 35.3838 30.8844C35.8817 30.7865 36.3388 30.5444 36.6976 30.1892C37.0565 29.8339 37.3011 29.3814 37.3999 28.8885C37.4988 28.3956 37.4476 27.8849 37.2531 27.4208C37.0585 26.9568 36.7293 26.5602 36.3071 26.2815C35.8851 26.0027 35.3887 25.8542 34.881 25.8547C34.2026 25.8578 33.5526 26.1259 33.0728 26.6009C32.5933 27.0759 32.3222 27.7192 32.3193 28.3909Z" fill="#13C296" fill-opacity="0.7"/>
<path fill-rule="evenodd" clip-rule="evenodd" d="M46.4609 28.391C46.4604 28.8932 46.6101 29.3846 46.8916 29.8023C47.1731 30.2203 47.5735 30.5462 48.042 30.7387C48.5108 30.9313 49.0267 30.9823 49.5242 30.8844C50.0221 30.7868 50.4792 30.5453 50.8384 30.1903C51.1972 29.8354 51.4418 29.3828 51.5409 28.8903C51.6401 28.3977 51.5895 27.887 51.3955 27.4228C51.2016 26.9587 50.8727 26.562 50.451 26.2829C50.0291 26.0037 49.533 25.8547 49.0258 25.8547C48.3468 25.857 47.696 26.1249 47.2156 26.5999C46.7352 27.075 46.4638 27.7188 46.4609 28.391Z" fill="#13C296" fill-opacity="0.7"/>
<path d="M11.5332 9.19091C13.6569 7.08859 13.6569 3.68002 11.5332 1.57769C9.40957 -0.524628 5.96643 -0.524579 3.84274 1.57774C1.71909 3.68008 1.71909 7.08859 3.84274 9.19091C5.96643 11.2932 9.40954 11.2932 11.5332 9.19091Z" fill="#A7DDCF"/>
<path fill-rule="evenodd" clip-rule="evenodd" d="M94.7403 3.23582C94.7403 2.59643 94.5486 1.97136 94.1898 1.43971C93.831 0.908071 93.3212 0.493707 92.7245 0.249017C92.1277 0.00432764 91.4711 -0.0596904 90.8374 0.065051C90.2041 0.189792 89.6222 0.497717 89.1653 0.949842C88.7088 1.40197 88.3976 1.97799 88.2717 2.60511C88.1458 3.23222 88.2103 3.88225 88.4575 4.47298C88.7047 5.0637 89.1232 5.56864 89.6603 5.92386C90.1974 6.2791 90.8287 6.4687 91.4746 6.4687C92.3406 6.4687 93.1714 6.12811 93.7838 5.52181C94.3963 4.91553 94.7403 4.09324 94.7403 3.23582Z" fill="#A7DDCF"/>
<path fill-rule="evenodd" clip-rule="evenodd" d="M18.1748 28.3909C18.1742 28.8934 18.3243 29.3845 18.6059 29.8025C18.8875 30.2205 19.288 30.5464 19.7568 30.739C20.2256 30.9316 20.7416 30.9823 21.2394 30.8844C21.7372 30.7865 22.1944 30.5444 22.5533 30.1892C22.9122 29.8339 23.1565 29.3814 23.2554 28.8885C23.3543 28.3956 23.3033 27.8849 23.1088 27.4208C22.9143 26.9568 22.585 26.5602 22.1628 26.2815C21.7406 26.0027 21.2443 25.8542 20.7368 25.8547C20.0582 25.8578 19.4084 26.1259 18.9286 26.6009C18.4488 27.0759 18.1779 27.7192 18.1748 28.3909Z" fill="#13C296" fill-opacity="0.7"/>
<path fill-rule="evenodd" clip-rule="evenodd" d="M74.7676 28.391C74.767 28.8932 74.9171 29.3846 75.1985 29.8023C75.48 30.2203 75.8805 30.5462 76.349 30.7387C76.8177 30.9313 77.3333 30.9823 77.8312 30.8844C78.3287 30.7868 78.7862 30.5453 79.145 30.1903C79.5041 29.8354 79.7487 29.3828 79.8479 28.8903C79.947 28.3977 79.8964 27.887 79.7025 27.4228C79.5085 26.9587 79.1796 26.562 78.7579 26.2829C78.336 26.0037 77.8399 25.8547 77.3324 25.8547C76.6534 25.857 76.0029 26.1249 75.5225 26.5999C75.0421 27.075 74.7708 27.7188 74.7676 28.391Z" fill="#13C296" fill-opacity="0.7"/>
<path fill-rule="evenodd" clip-rule="evenodd" d="M89.09 19.386H78.4293V23.8107C79.5631 24.0768 80.5591 24.7458 81.2276 25.6909C81.8962 26.636 82.1905 27.7911 82.0553 28.937C81.92 30.0831 81.3643 31.1399 80.4937 31.9068C79.623 32.6737 78.4982 33.0975 77.3329 33.0975C76.1674 33.0975 75.0426 32.6737 74.1719 31.9068C73.3013 31.1399 72.7458 30.0831 72.6103 28.937C72.4751 27.7911 72.7697 26.636 73.4382 25.6909C74.1068 24.7458 75.1025 24.0768 76.2366 23.8107V19.3745H64.2789V23.8107C65.413 24.0764 66.4093 24.7453 67.0781 25.6903C67.7467 26.6353 68.0415 27.7906 67.9066 28.9368C67.7714 30.0828 67.2157 31.1399 66.345 31.9068C65.4743 32.674 64.3495 33.0978 63.184 33.0978C62.0185 33.0978 60.8934 32.674 60.0227 31.9068C59.152 31.1399 58.5966 30.0828 58.4614 28.9368C58.3262 27.7906 58.621 26.6353 59.2899 25.6903C59.9587 24.7453 60.9547 24.0764 62.0891 23.8107V19.3745H50.1169V23.8107C51.251 24.0764 52.2473 24.7453 52.9161 25.6903C53.5847 26.6353 53.8795 27.7906 53.7443 28.9368C53.6094 30.0828 53.0536 31.1399 52.183 31.9068C51.3123 32.674 50.1875 33.0978 49.022 33.0978C47.8565 33.0978 46.7313 32.674 45.8607 31.9068C44.99 31.1399 44.4346 30.0828 44.2994 28.9368C44.1642 27.7906 44.459 26.6353 45.1279 25.6903C45.7967 24.7453 46.7927 24.0764 47.9271 23.8107V19.3745H35.9519V23.8107C37.086 24.0764 38.0823 24.7453 38.7509 25.6903C39.4197 26.6353 39.7146 27.7906 39.5794 28.9368C39.4444 30.0828 38.8887 31.1399 38.0181 31.9068C37.1474 32.674 36.0226 33.0978 34.8571 33.0978C33.6915 33.0978 32.5664 32.674 31.6958 31.9068C30.8251 31.1399 30.2697 30.0828 30.1344 28.9368C29.9992 27.7906 30.2941 26.6353 30.9629 25.6903C31.6318 24.7453 32.6278 24.0764 33.7622 23.8107V19.3745H21.7898V23.8107C22.924 24.0764 23.9202 24.7453 24.589 25.6903C25.2578 26.6353 25.5526 27.7906 25.4175 28.9368C25.2824 30.0828 24.7267 31.1399 23.8561 31.9068C22.9854 32.674 21.8605 33.0978 20.695 33.0978C19.5294 33.0978 18.4045 32.674 17.5339 31.9068C16.6632 31.1399 16.1075 30.0828 15.9724 28.9368C15.8373 27.7906 16.1322 26.6353 16.8009 25.6903C17.4698 24.7453 18.4659 24.0764 19.6001 23.8107V19.3745H8.93641C6.57091 19.3768 4.30295 20.308 2.6303 21.9639C0.957638 23.6197 0.0169581 25.8649 0.0146484 28.2066V40.9108H97.9653V28.2066C97.9725 27.0492 97.748 25.9018 97.3052 24.8306C96.8623 23.7594 96.2091 22.7857 95.3841 21.9657C94.5588 21.1456 93.578 20.4954 92.4976 20.0527C91.4173 19.6099 90.2593 19.3833 89.09 19.386Z" fill="#A7DDCF"/>
<path fill-rule="evenodd" clip-rule="evenodd" d="M0.0613205 85.9667C0.0636304 88.3077 1.00407 90.552 2.67619 92.2073C4.3483 93.8626 6.61553 94.7936 8.98024 94.7959H89.0699C91.435 94.7936 93.7027 93.8623 95.3748 92.2064C97.0469 90.5503 97.987 88.3051 97.9885 85.9638V43.0986H0.0410156V85.9753L0.0613205 85.9667ZM49.044 49.7889C52.6462 49.7889 56.1672 50.8463 59.1625 52.8275C62.1574 54.8087 64.492 57.6244 65.8704 60.9192C67.2488 64.2137 67.6097 67.8386 66.9068 71.3361C66.2042 74.8335 64.4693 78.0463 61.9225 80.5678C59.3753 83.0893 56.13 84.8065 52.597 85.5023C49.0641 86.1978 45.402 85.8409 42.0741 84.476C38.7462 83.1115 35.9019 80.8007 33.9006 77.8355C31.8993 74.8707 30.8312 71.3847 30.8312 67.8188C30.8387 63.0394 32.76 58.4578 36.174 55.0781C39.5878 51.6984 44.2159 49.7964 49.044 49.7889Z" fill="#A7DDCF"/>
<path fill-rule="evenodd" clip-rule="evenodd" d="M34.5086 68.8264H33.04C33.2631 72.2893 34.6316 75.5832 36.9339 78.1997L37.9895 77.1547C38.0898 77.0491 38.2108 76.9647 38.3445 76.9063C38.4786 76.8481 38.6231 76.817 38.7694 76.8147C38.916 76.8127 39.0611 76.8398 39.1969 76.8945C39.3324 76.9489 39.4554 77.0301 39.5589 77.1326C39.6622 77.2351 39.7439 77.3571 39.7988 77.4916C39.8535 77.6257 39.8806 77.7696 39.8782 77.9147C39.8759 78.0595 39.8442 78.2023 39.7849 78.335C39.7258 78.4675 39.6404 78.5869 39.5336 78.6862L38.478 79.7312C41.1168 82.0256 44.4429 83.4 47.9465 83.6435V82.1322C47.9389 81.9851 47.9616 81.8379 48.0131 81.6998C48.0646 81.5619 48.144 81.4355 48.2463 81.3287C48.349 81.2219 48.4723 81.137 48.6087 81.0788C48.7453 81.0209 48.8928 80.9907 49.0414 80.9907C49.19 80.9907 49.3374 81.0209 49.4741 81.0788C49.6108 81.137 49.7338 81.2219 49.8364 81.3287C49.9388 81.4355 50.0182 81.5619 50.0696 81.6998C50.1211 81.8379 50.1441 81.9851 50.1362 82.1322V83.6435C53.6445 83.419 56.9765 82.0423 59.6047 79.7312L58.5491 78.6862C58.4424 78.5869 58.3569 78.4675 58.2979 78.335C58.2385 78.2023 58.2068 78.0595 58.2045 77.9147C58.2022 77.7696 58.2292 77.6257 58.2839 77.4916C58.3389 77.3571 58.4206 77.2351 58.5238 77.1326C58.6273 77.0301 58.7504 76.9489 58.8862 76.8945C59.0217 76.8398 59.1668 76.8127 59.3133 76.8147C59.4596 76.817 59.6041 76.8481 59.7382 76.9063C59.872 76.9647 59.9929 77.0491 60.0933 77.1547L61.1489 78.1997C63.4482 75.5815 64.8153 72.2884 65.0398 68.8264H63.5858C63.3052 68.812 63.0408 68.6914 62.8475 68.4899C62.6538 68.2881 62.5459 68.0206 62.5459 67.7425C62.5459 67.4642 62.6538 67.1967 62.8475 66.9949C63.0408 66.7934 63.3052 66.6728 63.5858 66.6587H65.0398C64.7949 63.211 63.4136 59.9381 61.1082 57.3429L60.0933 58.3476C59.8903 58.5465 59.6158 58.6585 59.3299 58.6585C59.0441 58.6585 58.7698 58.5465 58.5666 58.3476C58.4651 58.2471 58.3845 58.128 58.3296 57.997C58.2746 57.8657 58.2461 57.7252 58.2461 57.5833C58.2461 57.4411 58.2746 57.3006 58.3296 57.1693C58.3845 57.0383 58.4651 56.9192 58.5666 56.819L59.5669 55.8316C56.9419 53.5602 53.6352 52.2069 50.1566 51.9797V53.3731C50.1642 53.5199 50.1418 53.667 50.09 53.8052C50.0385 53.9431 49.9591 54.0694 49.8568 54.1762C49.7541 54.2831 49.6308 54.368 49.4942 54.4261C49.3575 54.4843 49.2106 54.5142 49.0617 54.5142C48.9131 54.5142 48.766 54.4843 48.6293 54.4261C48.4926 54.368 48.3693 54.2831 48.2667 54.1762C48.1643 54.0694 48.0849 53.9431 48.0335 53.8052C47.982 53.667 47.9593 53.5199 47.9669 53.3731V51.9797C44.4883 52.2074 41.1819 53.5608 38.5565 55.8316L39.554 56.819C39.6563 56.9189 39.7375 57.0378 39.793 57.169C39.8483 57.3 39.8768 57.4411 39.8768 57.5833C39.8768 57.7255 39.8483 57.8663 39.793 57.9973C39.7375 58.1285 39.6563 58.2477 39.554 58.3476C39.4542 58.4469 39.3356 58.5255 39.2047 58.5788C39.0739 58.6323 38.9337 58.6594 38.7921 58.6585C38.6505 58.66 38.51 58.6332 38.3791 58.5799C38.2483 58.5264 38.1296 58.4475 38.0302 58.3476L37.0124 57.3429C34.7069 59.9381 33.3256 63.2107 33.0808 66.6587H34.5348C34.6787 66.6581 34.8212 66.6857 34.9541 66.7401C35.087 66.7943 35.208 66.874 35.3097 66.9745C35.4118 67.0752 35.4924 67.1947 35.5476 67.326C35.6029 67.4575 35.6311 67.5986 35.6311 67.7411C35.6226 68.0327 35.4993 68.3097 35.2873 68.5123C35.0756 68.7153 34.7918 68.8278 34.497 68.8264H34.5086ZM42.2759 66.9869H48.1821L53.2885 58.8917C53.4426 58.6476 53.6887 58.4743 53.9719 58.4098C54.2551 58.3453 54.5529 58.3948 54.7992 58.5477C55.0455 58.7003 55.2206 58.9435 55.2857 59.2242C55.3512 59.5046 55.3012 59.7991 55.1467 60.0432L49.7088 68.645C49.6102 68.7979 49.4744 68.924 49.3139 69.0115C49.1533 69.099 48.973 69.1454 48.7898 69.1459H42.2759C41.9851 69.1459 41.7062 69.0314 41.5006 68.8278C41.295 68.6243 41.1796 68.3482 41.1796 68.0606C41.1796 67.9187 41.2081 67.7785 41.2633 67.6478C41.3186 67.5171 41.3997 67.3985 41.5018 67.2992C41.6038 67.1996 41.7248 67.1213 41.8577 67.0689C41.9906 67.0162 42.1328 66.9903 42.2759 66.9926V66.9869Z" fill="#13C296" fill-opacity="0.7"/>
</svg>
