<svg width="95" height="98" viewBox="0 0 95 98" fill="none" xmlns="http://www.w3.org/2000/svg">
<path fill-rule="evenodd" clip-rule="evenodd" d="M64.6574 31.8453C64.2316 30.2479 63.566 28.717 62.6814 27.3002C62.558 27.1058 62.5018 26.8796 62.5204 26.6533C62.539 26.4269 62.6316 26.2118 62.7852 26.0381L67.1381 20.9549L62.7639 16.811L57.4243 20.9345C57.2416 21.0807 57.0156 21.1687 56.7779 21.1865C56.5403 21.2042 56.3026 21.1507 56.0983 21.0334C54.6113 20.1888 53.003 19.555 51.3241 19.1519C51.0926 19.0947 50.8849 18.9726 50.7273 18.8014C50.5699 18.6303 50.4704 18.4181 50.441 18.1923L49.7266 11.6638H43.547L42.8322 18.1923C42.8077 18.4196 42.7094 18.6341 42.5512 18.806C42.3932 18.978 42.1828 19.0988 41.9494 19.1519C40.2721 19.5602 38.6644 20.1937 37.1749 21.0334C36.9706 21.1507 36.7329 21.2042 36.4953 21.1865C36.2576 21.1687 36.0316 21.0807 35.8489 20.9345L30.5095 16.811L26.1566 20.9549L30.4882 26.0381C30.6422 26.2115 30.7351 26.4265 30.7544 26.6528C30.7736 26.8791 30.718 27.1055 30.5952 27.3002C29.7137 28.7186 29.0482 30.2488 28.6187 31.8453C28.5576 32.0657 28.4287 32.2635 28.2485 32.4132C28.0683 32.563 27.845 32.6578 27.6076 32.6857L20.7529 33.3662V39.252L27.6076 39.9325C27.8465 39.9566 28.0718 40.05 28.2528 40.2006C28.4338 40.3509 28.5615 40.5507 28.6187 40.7729C29.0487 42.3694 29.7141 43.8996 30.5952 45.3181C30.718 45.513 30.7736 45.7392 30.7544 45.9654C30.7351 46.192 30.6422 46.4069 30.4882 46.5802L26.1566 51.6634L30.5095 55.8277L35.8489 51.6838C36.0316 51.5378 36.2576 51.4497 36.4953 51.4319C36.7329 51.4142 36.9706 51.4677 37.1749 51.5849C38.6656 52.4224 40.273 53.0558 41.9494 53.4664C42.1809 53.5239 42.3893 53.6464 42.5466 53.8182C42.7042 53.9898 42.8035 54.2027 42.8322 54.4289L43.547 60.9545H49.7293L50.4444 54.4289C50.4694 54.2015 50.5681 53.9869 50.7267 53.815C50.8855 53.6432 51.0963 53.5222 51.3303 53.4693C53.0051 53.0575 54.6113 52.4241 56.1016 51.5878C56.3057 51.4706 56.5433 51.4171 56.781 51.4348C57.019 51.4526 57.2447 51.5407 57.4274 51.6867L62.7666 55.8306L67.1409 51.6663L62.7913 46.5831C62.6365 46.4101 62.5427 46.1952 62.5235 45.9686C62.5042 45.7421 62.5604 45.5156 62.6841 45.321C63.5721 43.906 64.238 42.3746 64.6608 40.7758C64.7213 40.5554 64.8502 40.3576 65.0304 40.2076C65.2106 40.0578 65.4342 39.963 65.6719 39.9354L72.5266 39.252V33.3691L65.6719 32.6886C65.4339 32.6627 65.2094 32.5688 65.0286 32.4193C64.8474 32.2699 64.7182 32.0718 64.6574 31.8511V31.8453ZM46.6166 48.5169C44.0748 48.5169 41.5902 47.7992 39.4769 46.4546C37.3637 45.1096 35.717 43.1985 34.7453 40.9625C33.7733 38.7265 33.52 36.2664 34.017 33.8934C34.5143 31.5202 35.7396 29.3409 37.5385 27.631C39.337 25.9212 41.628 24.7577 44.1216 24.2878C46.6151 23.8178 49.1987 24.0625 51.5462 24.9909C53.8934 25.9193 55.8988 27.4897 57.3082 29.5035C58.718 31.517 59.4682 33.8835 59.4645 36.3033C59.4581 39.5443 58.1021 42.6506 55.6938 44.9412C53.2852 47.2319 50.021 48.5198 46.6166 48.5227V48.5169Z" fill="#51D1B1"/>
<path fill-rule="evenodd" clip-rule="evenodd" d="M46.6175 26.3208C44.5407 26.3191 42.5096 26.9037 40.7819 28.0006C39.0539 29.0978 37.7065 30.6579 36.9098 32.4838C36.1132 34.3098 35.903 36.3198 36.3062 38.2594C36.7094 40.1991 37.7077 41.9814 39.1748 43.3807C40.642 44.7804 42.5121 45.7345 44.5489 46.1221C46.5855 46.5101 48.6971 46.3141 50.6167 45.5594C52.5365 44.8048 54.1781 43.5253 55.334 41.8822C56.4899 40.2395 57.1078 38.3074 57.1103 36.3303C57.1097 33.6793 56.0045 31.1369 54.0376 29.2606C52.0704 27.3842 49.4022 26.327 46.6175 26.3208ZM46.6175 42.4749C45.3376 42.4772 44.0855 42.1178 43.0204 41.4423C41.9549 40.7664 41.1243 39.8053 40.6331 38.6799C40.1423 37.5545 40.013 36.3157 40.2623 35.1202C40.5113 33.9251 41.1277 32.827 42.0328 31.9653C42.9379 31.1037 44.0913 30.5172 45.3468 30.2799C46.6023 30.0429 47.9035 30.1659 49.0857 30.6332C50.2678 31.1005 51.2777 31.8915 51.9873 32.9055C52.6969 33.9198 53.0745 35.1115 53.072 36.3303C53.0626 37.9556 52.3789 39.5116 51.1699 40.6597C49.9612 41.8078 48.3251 42.4548 46.6175 42.4604V42.4749Z" fill="#51D1B1"/>
<path fill-rule="evenodd" clip-rule="evenodd" d="M44.9371 97.9883H46.8127C48.4704 97.9868 50.0741 97.4271 51.3403 96.4087C52.6065 95.39 53.4535 93.9781 53.7315 92.4224H38.0244C38.2963 93.9799 39.1406 95.3946 40.4067 96.4142C41.6732 97.4337 43.2787 97.9918 44.9371 97.9883Z" fill="#A7DDCF"/>
<path d="M11.9885 84.8988C14.731 82.2877 14.7309 78.0548 11.9884 75.4439C9.24588 72.8331 4.79945 72.8331 2.05692 75.4439C-0.685604 78.0548 -0.685656 82.288 2.05687 84.8988C4.79939 87.5096 9.24594 87.5096 11.9885 84.8988Z" fill="#A7DDCF"/>
<path fill-rule="evenodd" clip-rule="evenodd" d="M59.9089 84.6345H31.4788C30.7036 84.6345 29.9602 84.9277 29.4119 85.4496C28.8637 85.9716 28.5557 86.6794 28.5557 87.4175C28.5557 88.1555 28.8637 88.8634 29.4119 89.3853C29.9602 89.9073 30.7036 90.2005 31.4788 90.2005H60.2537C60.6457 90.2124 61.0357 90.1496 61.4014 90.0152C61.767 89.8809 62.1003 89.6779 62.3819 89.4185C62.6633 89.1588 62.8872 88.8482 63.0402 88.5048C63.1929 88.1614 63.2718 87.792 63.2718 87.4189C63.2718 87.0458 63.1929 86.6768 63.0402 86.3331C62.8872 85.9897 62.6633 85.6791 62.3819 85.4197C62.1003 85.16 61.767 84.957 61.4014 84.8227C61.0357 84.6883 60.6457 84.6255 60.2537 84.6374L59.9089 84.6345Z" fill="#A7DDCF"/>
<path fill-rule="evenodd" clip-rule="evenodd" d="M46.324 0.00285258C36.0206 -0.119284 26.2457 3.68439 18.7985 10.6927C11.3512 17.701 7.25488 26.9456 7.25488 36.7544C7.25504 42.7236 8.78304 48.6031 11.7067 53.8837C14.6303 59.1647 18.8615 63.6878 24.0342 67.0617C26.6706 68.7873 28.8501 71.0718 30.4011 73.7358C31.9521 76.3999 32.8322 79.3701 32.9721 82.4131H58.7504C58.9098 79.3527 59.8103 76.3693 61.3823 73.6954C62.9539 71.0218 65.1542 68.7303 67.8105 67.0006C72.9445 63.6209 77.1416 59.1071 80.042 53.8456C82.9424 48.5839 84.4599 42.7312 84.4645 36.7893C84.4645 16.7239 67.3584 0.255864 46.324 0.0174068V0.00285258ZM73.816 41.3577L66.7108 42.0586C66.3036 43.3413 65.7611 44.5816 65.0919 45.7605L69.6128 51.0472C69.7939 51.2601 69.8852 51.5294 69.8694 51.803C69.8535 52.0764 69.7316 52.3346 69.5272 52.5274L63.6623 58.1137C63.4585 58.3074 63.1867 58.4228 62.8992 58.4371C62.6115 58.4516 62.3286 58.3644 62.1044 58.1922L56.5541 53.8884C55.3169 54.5299 54.0126 55.0463 52.6624 55.4296L51.9293 62.1966C51.8972 62.4688 51.7622 62.7206 51.549 62.9049C51.3358 63.089 51.0594 63.1928 50.7716 63.1969H42.4751C42.1877 63.1928 41.9116 63.089 41.699 62.9047C41.4863 62.7203 41.3516 62.4688 41.3205 62.1966L40.5843 55.4296C39.2341 55.0463 37.9301 54.5299 36.6927 53.8884L31.1423 58.1922C30.9194 58.3655 30.6365 58.4534 30.349 58.4388C30.0616 58.4243 29.79 58.3085 29.5875 58.1137L23.741 52.5274C23.5359 52.3349 23.4134 52.0767 23.3976 51.803C23.3818 51.5294 23.4737 51.2598 23.6553 51.0472L28.1549 45.7605C27.4811 44.5836 26.9385 43.3428 26.5359 42.0586L19.4277 41.3577C19.1417 41.3287 18.8767 41.2007 18.683 40.998C18.4894 40.7953 18.3805 40.5325 18.377 40.2585V32.3691C18.3812 32.0954 18.4902 31.8326 18.6838 31.6302C18.8773 31.4278 19.1419 31.2995 19.4277 31.2699L26.5359 30.569C26.9385 29.2846 27.4811 28.0439 28.1549 26.867L23.6553 21.5803C23.4737 21.3676 23.3818 21.0982 23.3976 20.8244C23.4134 20.5508 23.5359 20.2926 23.741 20.1002L29.5875 14.5342C29.79 14.3396 30.0612 14.2235 30.3485 14.2085C30.6359 14.1934 30.9187 14.2805 31.1423 14.4527L36.6927 18.7362C37.9307 18.096 39.2348 17.5796 40.5843 17.195L41.3205 10.4281C41.3516 10.156 41.4863 9.90414 41.699 9.71991C41.9116 9.53569 42.1877 9.43176 42.4751 9.42769H50.7594C51.0474 9.43103 51.3242 9.53462 51.5374 9.71892C51.7509 9.90321 51.8856 10.1555 51.9171 10.4281L52.6533 17.195C54.0016 17.5807 55.3044 18.0971 56.5419 18.7362L62.0861 14.4557C62.3091 14.2824 62.5919 14.1944 62.8794 14.209C63.1668 14.2235 63.4384 14.3394 63.6409 14.5342L69.5089 20.1002C69.7123 20.2941 69.8336 20.5528 69.8489 20.8266C69.8638 21.1004 69.7722 21.3699 69.5914 21.5832L65.0705 26.867C65.7434 28.0452 66.2859 29.2869 66.6894 30.5719L73.7976 31.2699C74.0839 31.2995 74.349 31.4283 74.5424 31.6313C74.736 31.8343 74.8448 32.0978 74.8484 32.372V40.2585C74.8475 40.5322 74.7406 40.7959 74.5476 40.9989C74.3548 41.2019 74.0897 41.3295 73.8038 41.3577H73.816Z" fill="#A7DDCF"/>
<path fill-rule="evenodd" clip-rule="evenodd" d="M94.7715 63.479C94.7721 62.5959 94.4975 61.7325 93.9825 60.9979C93.4675 60.2634 92.7353 59.6908 91.8784 59.3526C91.0216 59.0144 90.0783 58.9257 89.1686 59.0978C88.2587 59.27 87.4229 59.6951 86.7671 60.3198C86.1112 60.9441 85.6643 61.7398 85.4835 62.6061C85.3027 63.4721 85.3958 64.3698 85.7511 65.1858C86.1063 66.0015 86.7081 66.6985 87.4794 67.1888C88.251 67.6791 89.158 67.9405 90.0857 67.9399C91.3286 67.9399 92.5202 67.47 93.399 66.6334C94.2779 65.7967 94.7715 64.662 94.7715 63.479Z" fill="#A7DDCF"/>
</svg>
