<svg width="98" height="95" viewBox="0 0 98 95" fill="none" xmlns="http://www.w3.org/2000/svg">
<path fill-rule="evenodd" clip-rule="evenodd" d="M52.6787 53.226V60.4193C54.4668 59.308 56.1148 57.9864 57.5877 56.4827V32.4189H52.6787V53.226Z" fill="#13C296"/>
<path fill-rule="evenodd" clip-rule="evenodd" d="M37.9928 48.3222V64.266C38.3243 64.2863 38.6764 64.2863 39.0079 64.2863C40.3052 64.2802 41.6004 64.1829 42.8843 63.9958V44.6675H37.9785V48.3222H37.9928Z" fill="#13C296"/>
<path fill-rule="evenodd" clip-rule="evenodd" d="M45.3477 63.5188C47.0384 63.0932 48.6834 62.5035 50.2596 61.7583V54.4575H45.3477V63.5188Z" fill="#13C296"/>
<path fill-rule="evenodd" clip-rule="evenodd" d="M97.9851 7.93979C97.9851 6.73315 97.6271 5.55361 96.9559 4.5503C96.285 3.54701 95.3312 2.76504 94.2151 2.30328C93.0993 1.84151 91.8715 1.72069 90.6868 1.9561C89.5024 2.1915 88.4142 2.77256 87.5601 3.62577C86.706 4.479 86.1244 5.5661 85.8889 6.74956C85.6531 7.93302 85.7743 9.15971 86.2364 10.2745C86.6985 11.3893 87.4813 12.3422 88.4855 13.0125C89.4899 13.6829 90.6705 14.0407 91.8782 14.0407C93.498 14.0407 95.0512 13.3979 96.1963 12.2538C97.3418 11.1097 97.9851 9.55784 97.9851 7.93979Z" fill="#A7DDCF"/>
<path fill-rule="evenodd" clip-rule="evenodd" d="M15.3161 88.0888C15.3161 86.8823 14.958 85.7025 14.2869 84.6993C13.6159 83.6961 12.6622 82.9141 11.5463 82.4521C10.4305 81.9905 9.20258 81.8696 8.01797 82.105C6.83336 82.3406 5.74522 82.9216 4.89116 83.7749C4.03711 84.6281 3.45553 85.715 3.2199 86.8985C2.98426 88.0821 3.10515 89.3087 3.56735 90.4234C4.02958 91.5384 4.81227 92.491 5.81652 93.1616C6.82077 93.8318 8.00148 94.1897 9.2093 94.1897C10.8289 94.1897 12.3823 93.5468 13.5276 92.4027C14.6728 91.2587 15.3161 89.707 15.3161 88.0888Z" fill="#A7DDCF"/>
<path fill-rule="evenodd" clip-rule="evenodd" d="M71.8774 61.146C71.6817 60.949 71.5578 60.6925 71.5258 60.4168C71.4936 60.1414 71.5549 59.8631 71.7 59.6266C81.3663 44.4295 79.1184 24.1279 66.3522 11.3712C62.7492 7.75241 58.4633 4.88396 53.7425 2.93207C49.0219 0.980185 43.9602 -0.016353 38.8511 0.000202948H38.6999C33.5652 0.00757502 28.4833 1.03636 23.7506 3.02655C19.0179 5.01673 14.7294 7.92849 11.135 11.5919C-3.81513 26.7658 -3.6959 51.3555 11.4258 66.3812C24.1948 79.0711 44.4723 81.2906 59.6638 71.6599C59.8598 71.5309 60.0892 71.4621 60.3239 71.4624C60.6496 71.4609 60.9628 71.587 61.1963 71.8139L82.0235 92.6209C83.4627 93.9166 85.3447 94.611 87.2815 94.5607C89.2182 94.5105 91.0616 93.7194 92.4316 92.3507C93.8015 90.9824 94.5931 89.1405 94.6434 87.2056C94.6937 85.2711 93.9987 83.3908 92.702 81.953L71.8981 61.146H71.8774ZM59.8121 57.6917C59.753 57.771 59.6867 57.8448 59.6143 57.9125C57.4528 60.171 54.94 62.0655 52.1727 63.5225C52.0948 63.5713 52.0143 63.616 51.9314 63.6561C49.5558 64.8635 47.0209 65.729 44.4025 66.2272H44.3589C39.2283 67.2106 33.9255 66.7615 29.0339 64.9286C28.9902 64.9082 28.9466 64.9082 28.9029 64.885C26.2001 63.8624 23.6707 62.4307 21.4032 60.6405C21.3089 60.5934 21.2264 60.526 21.1618 60.4429C16.7125 56.8632 13.4455 52.0275 11.7863 46.5663C10.1271 41.1051 10.1525 35.2711 11.8594 29.8248C13.5663 24.3781 16.8756 19.5713 21.356 16.0305C25.8365 12.4897 31.2804 10.3789 36.9787 9.97317C42.6772 9.5674 48.3656 10.8855 53.3034 13.7557C58.2412 16.626 62.1993 20.9153 64.6624 26.0649C67.1252 31.2146 67.9787 36.9858 67.1115 42.6271C66.2443 48.2681 63.6966 53.5175 59.8005 57.6917H59.8121Z" fill="#A7DDCF"/>
<path fill-rule="evenodd" clip-rule="evenodd" d="M23.29 58.9897C24.8167 60.1434 26.4622 61.1309 28.1987 61.9356V40.9746H23.29V58.9897Z" fill="#13C296"/>
<path fill-rule="evenodd" clip-rule="evenodd" d="M30.6416 62.9067C32.2364 63.4471 33.8805 63.8297 35.5503 64.0485V49.5225H30.6416V62.9067Z" fill="#13C296"/>
</svg>
