<svg width="87" height="87" viewBox="0 0 87 87" fill="none" xmlns="http://www.w3.org/2000/svg">
<circle cx="43.5" cy="43.5" r="43.5" fill="#EB5728"/>
<g clip-path="url(#clip0_524_1045)">
<path d="M35.0258 30.0024C32.6864 29.9555 29.9843 30.5899 27.1634 31.8305C26.4491 32.1447 26 32.8724 26 33.6524V56.0024C26 56.7243 26.75 57.2243 27.4042 56.918C35.3041 53.2218 41.1524 57.6055 41.4026 57.7937C41.5808 57.9312 41.7935 57.9999 42.0124 57.9999C42.788 57.9999 43.0132 57.2887 43.0132 57.0012V33.0024C43.0132 32.6772 42.8549 32.3724 42.5891 32.1849C42.469 32.0987 39.5543 30.0843 35.0258 30.0024ZM60.8646 31.8305C58.043 30.5937 55.3303 29.9799 53.0022 30.0018C48.4712 30.0838 45.6152 32.0987 45.4401 32.1843C45.1711 32.3724 45.0148 32.6768 45.0148 33.0024V56.9462C45.0148 57.2749 45.2337 57.9999 46.0155 57.9999C46.2335 57.9999 46.4495 57.9296 46.6273 57.7919C46.8728 57.6033 52.7221 53.2194 60.6257 56.9169C61.28 57.2229 62.0299 56.7229 62.0299 56.0013V33.6513C61.9717 32.873 61.5776 32.1443 60.8646 31.8305Z" fill="white"/>
</g>
<defs>
<clipPath id="clip0_524_1045">
<rect width="36.028" height="32" fill="white" transform="translate(26 28)"/>
</clipPath>
</defs>
</svg>
