<svg width="37" height="28" viewBox="0 0 37 28" fill="none" xmlns="http://www.w3.org/2000/svg">
<path d="M9.02576 0.00242207C6.68644 -0.0444529 3.98434 0.589922 1.1634 1.83055C0.449099 2.14467 0 2.87242 0 3.65242V26.0024C0 26.7243 0.749957 27.2243 1.40422 26.918C9.3041 23.2218 15.1524 27.6055 15.4026 27.7937C15.5808 27.9312 15.7935 27.9999 16.0124 27.9999C16.788 27.9999 17.0132 27.2887 17.0132 27.0012V3.00242C17.0132 2.67723 16.8549 2.37242 16.5891 2.18492C16.469 2.09867 13.5543 0.0842971 9.02576 0.00242207ZM34.8646 1.83055C32.043 0.593672 29.3303 -0.0200781 27.0022 0.00179694C22.4712 0.0837969 19.6152 2.09867 19.4401 2.1843C19.1711 2.37242 19.0148 2.6768 19.0148 3.00242V26.9462C19.0148 27.2749 19.2337 27.9999 20.0155 27.9999C20.2335 27.9999 20.4495 27.9296 20.6273 27.7919C20.8728 27.6033 26.7221 23.2194 34.6257 26.9169C35.28 27.2229 36.0299 26.7229 36.0299 26.0013V3.6513C35.9717 2.87305 35.5776 2.1443 34.8646 1.83055Z" fill="white"/>
</svg>
