<svg width="16" height="12" viewBox="0 0 16 12" fill="none" xmlns="http://www.w3.org/2000/svg">
<path d="M15.06 0.939286L15.0599 0.93918C14.7786 0.657973 14.3972 0.5 13.9994 0.5C13.6017 0.5 13.2202 0.657973 12.9389 0.93918L12.9389 0.939233L5.99943 7.87868L3.05998 4.93923L3.06004 4.93918L3.05379 4.93314C2.77088 4.65991 2.39198 4.50871 1.99868 4.51213C1.60539 4.51555 1.22917 4.6733 0.951059 4.95141C0.672946 5.22953 0.515193 5.60575 0.511775 5.99904C0.508358 6.39234 0.659549 6.77124 0.932787 7.05414L0.932732 7.05419L0.938877 7.06034L4.93888 11.0603L4.93893 11.0604C5.22022 11.3416 5.60168 11.4996 5.99943 11.4996C6.39718 11.4996 6.77864 11.3416 7.05993 11.0604L7.05998 11.0603L15.06 3.06034L15.06 3.06029C15.3412 2.77899 15.4992 2.39753 15.4992 1.99979C15.4992 1.60204 15.3412 1.22058 15.06 0.939286Z" fill="#EB5728" stroke="#EB5728"/>
</svg>
