<svg width="141" height="141" viewBox="0 0 141 141" fill="none" xmlns="http://www.w3.org/2000/svg">
<path d="M85.7259 21.0687C98.8104 26.9593 116.195 28.8922 125.071 37.8202C133.855 46.6562 134.129 62.5793 125.62 72.7038C117.202 82.8283 99.9084 87.0622 90.4839 98.2913C80.9679 109.52 79.4124 127.652 71.7264 134.003C64.0404 140.262 50.3154 134.74 38.0544 128.941C25.7935 123.142 14.9965 117.068 11.062 107.679C7.21899 98.2913 10.147 85.6816 11.7025 75.1889C13.3495 64.7883 13.624 56.5046 15.454 47.5766C17.3755 38.6486 20.8525 28.9842 27.6235 20.1483C34.3945 11.3123 44.5509 3.30475 54.0669 4.31721C63.5829 5.23762 72.5499 15.1781 85.7259 21.0687Z" fill="#EB5728" fill-opacity="0.1"/>
<path d="M62.4141 63.7812H68.5179L65.466 58.625L62.4141 63.7812Z" fill="#EB5728"/>
<path d="M63.432 93.6875V95.75C63.432 99.1676 60.6995 101.938 57.3281 101.938H97.0034C99.2506 101.938 101.073 100.091 101.073 97.8125V93.6875H63.432Z" fill="#EB5728"/>
<path d="M61.3948 95.75V91.625H91.9143V72.8851L82.5845 82.3438H75.6372L68.516 89.5625L67.2007 88.2291L94.6681 60.3853L95.9835 61.7188L77.6719 80.2812H81.7411L91.8848 69.9987C96.4627 65.358 99.0355 59.0623 99.0355 52.4983V46.25L73.6026 72.0312V78.8231L71.568 80.8856V71.1774L91.9143 50.5524V46.25C91.9143 42.8324 89.1818 40.0625 85.8104 40.0625H53.2563H47.1524L46.6397 40.0883C42.896 40.3513 40.0312 43.4625 40.0312 47.3957C40.0312 50.7442 42.7688 53.4688 46.1351 53.4688C48.9399 53.4688 51.2217 51.1969 51.2217 48.4043C51.2217 46.0572 49.3051 44.1463 46.949 44.1463C44.952 44.1463 43.3273 45.7663 43.3273 47.7587H45.362C45.362 46.9038 46.0741 46.2088 46.949 46.2088C48.183 46.2088 49.1871 47.1936 49.1871 48.4043C49.1871 50.0594 47.8178 51.4062 46.1351 51.4062C43.8909 51.4062 42.0659 49.6077 42.0659 47.3957C42.0659 44.3907 44.2521 42.125 47.1524 42.125H51.1169C52.4364 43.4347 53.2563 45.259 53.2563 47.2812V95.75C53.2563 98.028 55.0783 99.875 57.3256 99.875C59.5728 99.875 61.3948 98.028 61.3948 95.75ZM56.3083 63.7812H58.3429V59.6562L64.2769 54.5L58.3429 49.3438V45.2188H56.3083V43.1562H74.6199V45.2188H72.5853V49.3438L66.6513 54.5L72.5853 59.6562V63.7812H74.6199V65.8438H56.3083V63.7812Z" fill="#EB5728"/>
</svg>
