<svg width="40" height="40" viewBox="0 0 40 40" fill="none" xmlns="http://www.w3.org/2000/svg">
<g clip-path="url(#clip0_521_687)">
<path d="M27.4329 29.0406C27.4187 29.0269 27.4003 29.0185 27.3807 29.0169C27.3611 29.0152 27.3415 29.0203 27.3251 29.0313L25.0818 30.5262C25.0677 30.5359 25.0511 30.5413 25.0341 30.5417H14.9628C14.9458 30.5411 14.9293 30.5357 14.9151 30.5262L12.6795 29.0267C12.6631 29.0155 12.6433 29.0105 12.6236 29.0125C12.6039 29.0145 12.5856 29.0233 12.5717 29.0375L1.80915 39.8546C1.79724 39.8665 1.78912 39.8817 1.78583 39.8982C1.78253 39.9148 1.7842 39.932 1.79064 39.9476C1.79708 39.9632 1.80798 39.9765 1.82197 39.9858C1.83596 39.9951 1.85241 40.0001 1.8692 40H38.1292C38.1462 40.0004 38.1628 39.9957 38.1771 39.9865C38.1913 39.9773 38.2024 39.9639 38.2091 39.9483C38.2157 39.9326 38.2175 39.9153 38.2143 39.8986C38.211 39.8819 38.2029 39.8666 38.1908 39.8546L27.4329 29.0406Z" fill="#1A272D"/>
<path d="M10.5439 27.5905L0.137056 20.6113C0.124269 20.6025 0.109322 20.5974 0.0938642 20.5966C0.0784063 20.5957 0.0630262 20.5992 0.0493759 20.6065C0.0357256 20.6138 0.0243342 20.6248 0.0164466 20.6382C0.00855912 20.6516 0.0044826 20.6669 0.00464324 20.6824V38.1213C0.00457636 38.1382 0.0094955 38.1547 0.018796 38.1688C0.0280966 38.1828 0.0413596 38.1938 0.0568752 38.2003C0.0723907 38.2067 0.0894592 38.2084 0.105931 38.2051C0.122402 38.2018 0.137522 38.1936 0.149366 38.1817L10.5562 27.722C10.5652 27.7132 10.5721 27.7024 10.5765 27.6905C10.5808 27.6787 10.5824 27.666 10.5812 27.6534C10.58 27.6408 10.5761 27.6286 10.5696 27.6177C10.5632 27.6068 10.5544 27.5976 10.5439 27.5905Z" fill="#1A272D"/>
<path d="M39.8676 20.667L29.47 27.5998C29.4594 27.607 29.4506 27.6164 29.4442 27.6274C29.4377 27.6384 29.4338 27.6507 29.4326 27.6634C29.4314 27.6761 29.4331 27.6889 29.4374 27.7009C29.4417 27.7129 29.4486 27.7239 29.4576 27.7329L39.8537 38.1816C39.8658 38.1934 39.881 38.2014 39.8975 38.2046C39.9139 38.2078 39.931 38.206 39.9465 38.1996C39.9621 38.1932 39.9754 38.1824 39.9849 38.1685C39.9944 38.1546 39.9996 38.1382 40 38.1213V20.7381C39.9997 20.7228 39.9953 20.7078 39.9873 20.6947C39.9793 20.6816 39.9679 20.6709 39.9544 20.6637C39.941 20.6565 39.9258 20.6529 39.9106 20.6535C39.8953 20.6541 39.8805 20.6587 39.8676 20.667Z" fill="#1A272D"/>
<path d="M15.5911 28.1368C15.6296 28.1619 15.6745 28.1753 15.7204 28.1755H24.2796C24.3255 28.1753 24.3704 28.1619 24.409 28.1368L32.8188 22.5287C32.8512 22.5073 32.8777 22.4781 32.896 22.4437C32.9143 22.4094 32.9237 22.3711 32.9235 22.3321V5.94555C32.9235 5.88317 32.8989 5.82335 32.855 5.77924C32.8111 5.73513 32.7515 5.71033 32.6895 5.71033H7.28434C7.22227 5.71033 7.16276 5.73513 7.11887 5.77924C7.07498 5.82335 7.05032 5.88317 7.05032 5.94555V22.2764C7.05021 22.3152 7.05955 22.3533 7.07754 22.3876C7.09553 22.4219 7.12159 22.4512 7.15347 22.4729L15.5911 28.1368ZM19.9992 10.4395H27.0588C27.3708 10.4395 27.67 10.5641 27.8906 10.7858C28.1112 11.0075 28.2351 11.3083 28.2351 11.6218C28.2351 11.9354 28.1112 12.2361 27.8906 12.4578C27.67 12.6795 27.3708 12.8041 27.0588 12.8041H19.9992C19.6873 12.8041 19.388 12.6795 19.1674 12.4578C18.9468 12.2361 18.8229 11.9354 18.8229 11.6218C18.8229 11.3083 18.9468 11.0075 19.1674 10.7858C19.388 10.5641 19.6873 10.4395 19.9992 10.4395ZM18.8229 16.3525C18.8229 16.1973 18.8533 16.0436 18.9124 15.9001C18.9716 15.7567 19.0582 15.6263 19.1674 15.5165C19.2767 15.4067 19.4064 15.3197 19.5491 15.2603C19.6918 15.2008 19.8448 15.1703 19.9992 15.1703H27.0588C27.3708 15.1703 27.67 15.2948 27.8906 15.5165C28.1112 15.7383 28.2351 16.039 28.2351 16.3525C28.2351 16.6661 28.1112 16.9668 27.8906 17.1886C27.67 17.4103 27.3708 17.5349 27.0588 17.5349H19.9992C19.8448 17.5349 19.6918 17.5043 19.5491 17.4449C19.4064 17.3855 19.2767 17.2984 19.1674 17.1886C19.0582 17.0788 18.9716 16.9485 18.9124 16.805C18.8533 16.6616 18.8229 16.5078 18.8229 16.3525ZM18.8229 21.0817C18.8229 20.7682 18.9468 20.4674 19.1674 20.2457C19.388 20.024 19.6873 19.8995 19.9992 19.8995H27.0588C27.3708 19.8995 27.67 20.024 27.8906 20.2457C28.1112 20.4674 28.2351 20.7682 28.2351 21.0817C28.2351 21.3953 28.1112 21.696 27.8906 21.9178C27.67 22.1395 27.3708 22.264 27.0588 22.264H19.9992C19.8448 22.264 19.6918 22.2334 19.5491 22.174C19.4064 22.1146 19.2767 22.0275 19.1674 21.9178C19.0582 21.808 18.9716 21.6776 18.9124 21.5342C18.8533 21.3908 18.8229 21.237 18.8229 21.0817ZM12.9412 10.4395H15.2939C15.6059 10.4395 15.9051 10.5641 16.1257 10.7858C16.3463 11.0075 16.4702 11.3083 16.4702 11.6218C16.4702 11.9354 16.3463 12.2361 16.1257 12.4578C15.9051 12.6795 15.6059 12.8041 15.2939 12.8041H12.9412C12.6292 12.8041 12.33 12.6795 12.1094 12.4578C11.8888 12.2361 11.7649 11.9354 11.7649 11.6218C11.7649 11.3083 11.8888 11.0075 12.1094 10.7858C12.33 10.5641 12.6292 10.4395 12.9412 10.4395ZM11.7649 16.3525C11.7649 16.039 11.8888 15.7383 12.1094 15.5165C12.33 15.2948 12.6292 15.1703 12.9412 15.1703H15.2939C15.6059 15.1703 15.9051 15.2948 16.1257 15.5165C16.3463 15.7383 16.4702 16.039 16.4702 16.3525C16.4702 16.6661 16.3463 16.9668 16.1257 17.1886C15.9051 17.4103 15.6059 17.5349 15.2939 17.5349H12.9412C12.6292 17.5349 12.33 17.4103 12.1094 17.1886C11.8888 16.9668 11.7649 16.6661 11.7649 16.3525ZM11.7649 21.0817C11.7649 20.7682 11.8888 20.4674 12.1094 20.2457C12.33 20.024 12.6292 19.8995 12.9412 19.8995H15.2939C15.6059 19.8995 15.9051 20.024 16.1257 20.2457C16.3463 20.4674 16.4702 20.7682 16.4702 21.0817C16.4702 21.3953 16.3463 21.696 16.1257 21.9178C15.9051 22.1395 15.6059 22.264 15.2939 22.264H12.9412C12.6292 22.264 12.33 22.1395 12.1094 21.9178C11.8888 21.696 11.7649 21.3953 11.7649 21.0817Z" fill="#1A272D"/>
<path d="M23.2665 3.34567C23.285 3.34721 23.3035 3.34272 23.3192 3.33283C23.335 3.32294 23.3472 3.3082 23.3539 3.29081C23.3607 3.27343 23.3616 3.25429 23.3567 3.2363C23.3518 3.2183 23.3412 3.20239 23.3265 3.19092L20.0593 0.0154693C20.0431 0.000571092 20.022 -0.00769043 20 -0.00769043C19.9781 -0.00769043 19.9569 0.000571092 19.9407 0.0154693L16.6735 3.19092C16.6578 3.20169 16.6461 3.21748 16.6404 3.23573C16.6347 3.25398 16.6352 3.27362 16.642 3.2915C16.6488 3.30937 16.6613 3.32447 16.6776 3.3343C16.694 3.34413 16.7131 3.34812 16.732 3.34567H23.2665Z" fill="#EB5728"/>
<path d="M4.5575 20.7351C4.57029 20.7439 4.58522 20.749 4.60068 20.7498C4.61614 20.7507 4.63153 20.7472 4.64518 20.7399C4.65883 20.7326 4.67023 20.7216 4.67811 20.7082C4.686 20.6948 4.69008 20.6795 4.68992 20.664V15.7305C4.69107 15.712 4.6863 15.6937 4.67633 15.6781C4.66635 15.6626 4.6517 15.6506 4.63449 15.6441C4.61728 15.6375 4.59843 15.6366 4.5807 15.6416C4.56297 15.6466 4.54729 15.6571 4.53595 15.6717L1.69828 18.7017C1.68965 18.7107 1.68309 18.7214 1.67905 18.7332C1.67502 18.745 1.6736 18.7576 1.67492 18.77C1.67624 18.7824 1.68027 18.7943 1.6867 18.805C1.69313 18.8156 1.70181 18.8248 1.71213 18.8317L4.5575 20.7351Z" fill="#EB5728"/>
<path d="M35.4101 20.8016L38.2817 18.8859C38.2921 18.8791 38.3009 18.87 38.3075 18.8594C38.3141 18.8488 38.3182 18.8369 38.3197 18.8245C38.3212 18.8121 38.3199 18.7995 38.316 18.7876C38.3121 18.7758 38.3056 18.7649 38.2971 18.7558L35.424 15.6794C35.4123 15.667 35.3972 15.6584 35.3806 15.6547C35.364 15.651 35.3467 15.6524 35.3309 15.6588C35.3152 15.6651 35.3017 15.6761 35.2922 15.6903C35.2827 15.7044 35.2776 15.7211 35.2777 15.7382V20.7305C35.2776 20.746 35.2816 20.7613 35.2895 20.7747C35.2974 20.7881 35.3088 20.7991 35.3224 20.8064C35.3361 20.8137 35.3515 20.8172 35.367 20.8163C35.3824 20.8155 35.3973 20.8104 35.4101 20.8016Z" fill="#EB5728"/>
</g>
<defs>
<clipPath id="clip0_521_687">
<rect width="40" height="40" fill="white"/>
</clipPath>
</defs>
</svg>
