<svg width="141" height="141" viewBox="0 0 141 141" fill="none" xmlns="http://www.w3.org/2000/svg">
<path d="M83.5618 21.0687C96.6463 26.9593 114.031 28.8922 122.907 37.8202C131.691 46.6562 131.965 62.5793 123.456 72.7038C115.038 82.8283 97.7443 87.0622 88.3198 98.2913C78.8038 109.52 77.2483 127.652 69.5623 134.003C61.8764 140.262 48.1514 134.74 35.8904 128.941C23.6294 123.142 12.8324 117.068 8.89792 107.679C5.05493 98.2913 7.98292 85.6816 9.53842 75.1889C11.1854 64.7883 11.4599 56.5046 13.2899 47.5766C15.2114 38.6486 18.6884 28.9842 25.4594 20.1483C32.2304 11.3123 42.3869 3.30475 51.9029 4.31721C61.4188 5.23762 70.3858 15.1781 83.5618 21.0687Z" fill="#EB5728" fill-opacity="0.1"/>
<path d="M86.7139 71.299L82.3387 66.9238L73.5859 75.6766L77.9477 80.0653L86.7139 71.299Z" fill="#EB5728"/>
<path d="M83.1484 77.784L78.6959 82.2365L78.695 82.2356C78.5781 82.3589 78.4325 82.4514 78.2713 82.5048L69.521 85.3859C69.3392 85.4458 69.1443 85.4538 68.9582 85.4092C68.772 85.3646 68.602 85.269 68.4671 85.1333C68.3322 84.9975 68.2377 84.8269 68.1943 84.6404C68.1508 84.454 68.1601 84.2592 68.2211 84.0778L71.1556 75.3452C71.2068 75.1944 71.2924 75.0576 71.4055 74.9456L71.404 74.9443L83.1484 63.2V42.125H56.3359V53.4688C56.3359 53.7423 56.2273 54.0046 56.0339 54.198C55.8405 54.3914 55.5782 54.5 55.3047 54.5H43.9609V93.6875H83.1484V77.784ZM61.4922 52.4375H77.9922C78.2657 52.4375 78.528 52.5461 78.7214 52.7395C78.9148 52.9329 79.0234 53.1952 79.0234 53.4688C79.0234 53.7423 78.9148 54.0046 78.7214 54.198C78.528 54.3914 78.2657 54.5 77.9922 54.5H61.4922C61.2187 54.5 60.9564 54.3914 60.763 54.198C60.5696 54.0046 60.4609 53.7423 60.4609 53.4688C60.4609 53.1952 60.5696 52.9329 60.763 52.7395C60.9564 52.5461 61.2187 52.4375 61.4922 52.4375ZM49.1172 58.625H77.9922C78.2657 58.625 78.528 58.7336 78.7214 58.927C78.9148 59.1204 79.0234 59.3827 79.0234 59.6562C79.0234 59.9298 78.9148 60.1921 78.7214 60.3855C78.528 60.5789 78.2657 60.6875 77.9922 60.6875H49.1172C48.8437 60.6875 48.5814 60.5789 48.388 60.3855C48.1946 60.1921 48.0859 59.9298 48.0859 59.6562C48.0859 59.3827 48.1946 59.1204 48.388 58.927C48.5814 58.7336 48.8437 58.625 49.1172 58.625ZM49.1172 64.8125H73.8672C74.1407 64.8125 74.403 64.9211 74.5964 65.1145C74.7898 65.3079 74.8984 65.5702 74.8984 65.8438C74.8984 66.1173 74.7898 66.3796 74.5964 66.573C74.403 66.7664 74.1407 66.875 73.8672 66.875H49.1172C48.8437 66.875 48.5814 66.7664 48.388 66.573C48.1946 66.3796 48.0859 66.1173 48.0859 65.8438C48.0859 65.5702 48.1946 65.3079 48.388 65.1145C48.5814 64.9211 48.8437 64.8125 49.1172 64.8125ZM63.5547 85.4375H49.1172C48.8437 85.4375 48.5814 85.3288 48.388 85.1355C48.1946 84.9421 48.0859 84.6798 48.0859 84.4062C48.0859 84.1327 48.1946 83.8704 48.388 83.677C48.5814 83.4837 48.8437 83.375 49.1172 83.375H63.5547C63.8282 83.375 64.0905 83.4837 64.2839 83.677C64.4773 83.8704 64.5859 84.1327 64.5859 84.4062C64.5859 84.6798 64.4773 84.9421 64.2839 85.1355C64.0905 85.3288 63.8282 85.4375 63.5547 85.4375ZM65.6172 79.25H49.1172C48.8437 79.25 48.5814 79.1413 48.388 78.948C48.1946 78.7546 48.0859 78.4923 48.0859 78.2188C48.0859 77.9452 48.1946 77.6829 48.388 77.4895C48.5814 77.2962 48.8437 77.1875 49.1172 77.1875H65.6172C65.8907 77.1875 66.153 77.2962 66.3464 77.4895C66.5398 77.6829 66.6484 77.9452 66.6484 78.2188C66.6484 78.4923 66.5398 78.7546 66.3464 78.948C66.153 79.1413 65.8907 79.25 65.6172 79.25ZM49.1172 73.0625C48.8437 73.0625 48.5814 72.9539 48.388 72.7605C48.1946 72.5671 48.0859 72.3048 48.0859 72.0312C48.0859 71.7577 48.1946 71.4954 48.388 71.302C48.5814 71.1086 48.8437 71 49.1172 71H67.6797C67.9532 71 68.2155 71.1086 68.4089 71.302C68.6023 71.4954 68.7109 71.7577 68.7109 72.0312C68.7109 72.3048 68.6023 72.5671 68.4089 72.7605C68.2155 72.9539 67.9532 73.0625 67.6797 73.0625H49.1172Z" fill="#EB5728"/>
<path d="M89.3359 48.3125H85.2109V61.1375L89.3359 57.0125V48.3125Z" fill="#EB5728"/>
<path d="M54.2761 43.584L45.4219 52.4382H54.2761V43.584Z" fill="#EB5728"/>
<path d="M70.8281 82.7827L76.0365 81.068L72.5748 77.585L70.8281 82.7827Z" fill="#EB5728"/>
<path d="M83.7969 65.4668L94.0042 55.2595L98.3787 59.634L88.1714 69.8414L83.7969 65.4668Z" fill="#EB5728"/>
<path d="M85.2109 94.719C85.2109 94.9925 85.1023 95.2548 84.9089 95.4482C84.7155 95.6416 84.4532 95.7502 84.1797 95.7502H50.1484V99.8752H89.3359V71.5967L85.2109 75.7217V94.719Z" fill="#EB5728"/>
<path d="M100.573 53.0688C99.9925 52.4894 99.2058 52.1641 98.3856 52.1641C97.5653 52.1641 96.7786 52.4894 96.198 53.0688L95.4688 53.798L99.844 58.1732L100.573 57.444C101.153 56.8638 101.479 56.0769 101.479 55.2564C101.479 54.4358 101.153 53.6489 100.573 53.0688Z" fill="#EB5728"/>
</svg>
