<svg width="141" height="141" viewBox="0 0 141 141" fill="none" xmlns="http://www.w3.org/2000/svg">
<g clip-path="url(#clip0_521_60)">
<path d="M99.4827 45.4162C99.0233 44.9706 98.2993 44.9706 97.8399 45.4162L95.3751 47.9124L100.307 52.9143L102.771 50.4157C103.225 49.9555 103.225 49.2094 102.771 48.7492L99.4827 45.4162Z" fill="#EB5728"/>
<path d="M78.0462 74.2865L74.2897 70.4785L72.8829 75.7173L72.8876 75.7184L78.0462 74.2865Z" fill="#EB5728"/>
<path d="M81.1001 69.0485C80.6439 69.4951 79.9188 69.4888 79.4703 69.0341C79.0218 68.5795 79.0155 67.8444 79.4561 67.382L95.3692 51.2509L93.7241 49.582L75.3438 68.2141L80.2804 73.2171L84.8461 68.5889L98.6595 54.5862L97.0132 52.9174L81.1001 69.0485Z" fill="#EB5728"/>
<path d="M69.3879 45.0713H67.0626V46.2499V60.3927V61.5713H69.3902L69.3879 45.0713Z" fill="#EB5728"/>
<path d="M64.7444 48.1562L60.0938 50.5134V56.1281L64.7444 58.4853V48.1562Z" fill="#EB5728"/>
<path d="M82.8618 46.2495L76.3673 39.666V45.0709C76.3673 45.7219 76.8878 46.2495 77.5299 46.2495H82.8618Z" fill="#EB5728"/>
<path d="M49.6237 54.4997H50.7863V52.1426H49.6237C48.9816 52.1426 48.461 52.6702 48.461 53.3211C48.461 53.9721 48.9816 54.4997 49.6237 54.4997Z" fill="#EB5728"/>
<path d="M54.2735 58.0352H56.6V62.7494H54.2735V58.0352Z" fill="#EB5728"/>
<path d="M80.7273 75.9653L80.7017 75.9759C80.6599 75.9924 80.6215 76.016 80.5773 76.029L73.4852 77.9854C73.285 78.0425 73.0781 78.0715 72.8701 78.0714H43.8133C43.1712 78.0714 42.6507 77.5438 42.6507 76.8929C42.6507 76.242 43.1712 75.7143 43.8133 75.7143H70.5541C70.5545 75.5027 70.5835 75.2921 70.6402 75.0885L72.5667 67.911C72.581 67.8707 72.5977 67.8314 72.6167 67.7931L72.6318 67.7566C72.6856 67.6205 72.7645 67.4961 72.8643 67.39L84.5059 55.5914V48.89C84.5024 48.7952 84.4931 48.7007 84.478 48.6071H77.53C75.6037 48.6071 74.0421 47.0241 74.0421 45.0714V38.0283C73.9497 38.013 73.8565 38.0035 73.763 38H39.1627C38.5206 38 38.0001 38.5277 38.0001 39.1786V102.821C38.0001 103.472 38.5206 104 39.1627 104H83.3432C83.9853 104 84.5059 103.472 84.5059 102.821V72.2658L81.0935 75.7249C80.9878 75.8282 80.8635 75.9098 80.7273 75.9653ZM49.6265 49.7857H51.1124C51.5245 49.0588 52.2875 48.6097 53.1145 48.6071H58.6533L64.7409 45.5216V45.0714C64.7409 43.7696 65.782 42.7143 67.0662 42.7143H69.3915C70.6757 42.7143 71.7168 43.7696 71.7168 45.0714V61.5714C71.7168 62.8732 70.6757 63.9286 69.3915 63.9286H67.0662C65.782 63.9286 64.7409 62.8732 64.7409 61.5714V61.1212L58.9277 58.1748V62.75C58.9277 64.0518 57.8866 65.1071 56.6024 65.1071H54.2771C52.9929 65.1071 51.9518 64.0518 51.9518 62.75V57.7081C51.6046 57.5022 51.3155 57.2091 51.1124 56.8571H49.6265C47.7002 56.8571 46.1386 55.2742 46.1386 53.3214C46.1386 51.3687 47.7002 49.7857 49.6265 49.7857ZM43.8133 68.6429H67.0662C67.7083 68.6429 68.2289 69.1705 68.2289 69.8214C68.2289 70.4723 67.7083 71 67.0662 71H43.8133C43.1712 71 42.6507 70.4723 42.6507 69.8214C42.6507 69.1705 43.1712 68.6429 43.8133 68.6429ZM78.6927 99.2857H43.8133C43.1712 99.2857 42.6507 98.7581 42.6507 98.1071C42.6507 97.4562 43.1712 96.9286 43.8133 96.9286H78.6927C79.3348 96.9286 79.8553 97.4562 79.8553 98.1071C79.8553 98.7581 79.3348 99.2857 78.6927 99.2857ZM78.6927 92.2143H43.8133C43.1712 92.2143 42.6507 91.6866 42.6507 91.0357C42.6507 90.3848 43.1712 89.8571 43.8133 89.8571H78.6927C79.3348 89.8571 79.8553 90.3848 79.8553 91.0357C79.8553 91.6866 79.3348 92.2143 78.6927 92.2143ZM78.6927 85.1429H43.8133C43.1712 85.1429 42.6507 84.6152 42.6507 83.9643C42.6507 83.3134 43.1712 82.7857 43.8133 82.7857H78.6927C79.3348 82.7857 79.8553 83.3134 79.8553 83.9643C79.8553 84.6152 79.3348 85.1429 78.6927 85.1429Z" fill="#EB5728"/>
<path d="M53.1173 50.9648H57.7679V55.6791H53.1173V50.9648Z" fill="#EB5728"/>
</g>
<defs>
<clipPath id="clip0_521_60">
<rect width="65.1081" height="66" fill="white" transform="translate(38.0001 38)"/>
</clipPath>
</defs>
</svg>
