<svg width="40" height="40" viewBox="0 0 40 40" fill="none" xmlns="http://www.w3.org/2000/svg">
<g clip-path="url(#clip0_521_673)">
<path d="M37.5938 33.5297C37.5938 33.4524 37.5781 33.3758 37.5479 33.3043C37.5176 33.2328 37.4731 33.1678 37.4172 33.1131C37.3612 33.0584 37.2947 33.015 37.2216 32.9854C37.1485 32.9558 37.0701 32.9406 36.991 32.9406H27.238C27.1245 32.9418 27.0137 32.9743 26.9182 33.0343L25.1946 34.1174H36.991C37.0701 34.1176 37.1484 34.1025 37.2215 34.0731C37.2947 34.0437 37.3611 34.0004 37.4171 33.9458C37.4731 33.8912 37.5175 33.8264 37.5478 33.755C37.5781 33.6836 37.5938 33.607 37.5938 33.5297Z" fill="#1A272D"/>
<path d="M2.08811 34.1173H17.7345C17.8134 34.1173 17.8916 34.1021 17.9645 34.0726C18.0374 34.0431 18.1038 33.9998 18.1596 33.9452C18.2154 33.8907 18.2597 33.8259 18.2899 33.7546C18.3201 33.6833 18.3356 33.6069 18.3356 33.5297V19.4123C18.3356 19.2561 18.3991 19.1062 18.5121 18.9957C18.6252 18.8852 18.7785 18.8231 18.9384 18.8231H36.991C37.0701 18.8233 37.1484 18.8083 37.2216 18.7788C37.2947 18.7494 37.3611 18.7062 37.4171 18.6516C37.4731 18.597 37.5175 18.5321 37.5478 18.4607C37.5781 18.3893 37.5938 18.3128 37.5938 18.2355V11.176C37.5938 11.0987 37.5781 11.0222 37.5478 10.9508C37.5175 10.8794 37.4731 10.8145 37.4171 10.7599C37.3611 10.7053 37.2947 10.6621 37.2216 10.6327C37.1484 10.6032 37.0701 10.5882 36.991 10.5884H34.5847C34.5056 10.5882 34.4273 10.6032 34.3542 10.6327C34.2811 10.6621 34.2146 10.7053 34.1586 10.7599C34.1026 10.8145 34.0582 10.8794 34.0278 10.9508C33.9975 11.0222 33.9819 11.0987 33.9819 11.176V15.8818C33.9822 15.9591 33.9668 16.0357 33.9367 16.1072C33.9065 16.1786 33.8623 16.2436 33.8064 16.2983C33.7506 16.3531 33.6842 16.3965 33.6112 16.4261C33.5382 16.4558 33.4599 16.471 33.3808 16.471H15.5584C15.4498 16.4707 15.3431 16.4993 15.2499 16.5538L7.21247 21.2674C7.12103 21.3211 7.01666 21.35 6.91003 21.3514C6.8034 21.3527 6.6983 21.3264 6.60548 21.2751C6.51266 21.2237 6.43541 21.1493 6.38166 21.0593C6.3279 20.9692 6.2996 20.8669 6.29953 20.7626V11.176C6.29953 11.0202 6.23615 10.8707 6.12341 10.7605C6.01067 10.6503 5.85776 10.5884 5.69832 10.5884H2.08811C2.00903 10.5882 1.93069 10.6032 1.85757 10.6327C1.78445 10.6621 1.718 10.7053 1.66201 10.7599C1.60602 10.8145 1.56156 10.8794 1.53124 10.9508C1.50093 11.0222 1.48534 11.0987 1.48534 11.176V33.525C1.48471 33.6027 1.49989 33.6798 1.52992 33.7517C1.55994 33.8236 1.60424 33.889 1.66029 33.9441C1.71635 33.9992 1.78304 34.0429 1.85648 34.0726C1.92992 34.1023 2.00862 34.1175 2.08811 34.1173Z" fill="#1A272D"/>
<path d="M9.61871 17.1119L14.5751 14.2018C14.6689 14.147 14.776 14.1179 14.8853 14.1174H30.9665C31.0456 14.1176 31.124 14.1026 31.1971 14.0731C31.2702 14.0437 31.3367 14.0004 31.3926 13.9459C31.4486 13.8913 31.4931 13.8264 31.5234 13.755C31.5537 13.6836 31.5693 13.6071 31.5693 13.5298V0.587696C31.57 0.510001 31.5548 0.432952 31.5248 0.361012C31.4948 0.289071 31.4504 0.223658 31.3944 0.168572C31.3383 0.113487 31.2716 0.0698141 31.1982 0.0400822C31.1247 0.0103503 31.046 -0.00484566 30.9665 -0.00463654H9.31011C9.23103 -0.00484213 9.15269 0.0102039 9.07957 0.0396434C9.00645 0.0690829 8.94 0.112344 8.88401 0.166932C8.82802 0.221519 8.78363 0.286371 8.75332 0.357768C8.72301 0.429166 8.70734 0.505701 8.70734 0.583003V16.6024C8.70622 16.707 8.73368 16.81 8.78689 16.9007C8.8401 16.9915 8.91712 17.0667 9.01001 17.1186C9.1029 17.1705 9.20834 17.1973 9.31534 17.1961C9.42234 17.1949 9.52705 17.1659 9.61871 17.1119ZM12.3176 4.70584C12.3176 4.39373 12.4444 4.09438 12.6702 3.87368C12.896 3.65298 13.2022 3.529 13.5215 3.529H20.7435C21.0628 3.529 21.369 3.65298 21.5948 3.87368C21.8206 4.09438 21.9474 4.39373 21.9474 4.70584C21.9474 5.01796 21.8206 5.31729 21.5948 5.53799C21.369 5.75869 21.0628 5.88269 20.7435 5.88269H13.5215C13.2022 5.88269 12.896 5.75869 12.6702 5.53799C12.4444 5.31729 12.3176 5.01796 12.3176 4.70584ZM12.3176 9.41163C12.3176 9.09952 12.4444 8.80019 12.6702 8.57949C12.896 8.35879 13.2022 8.23479 13.5215 8.23479H26.7616C27.0809 8.23479 27.3871 8.35879 27.6129 8.57949C27.8386 8.80019 27.9655 9.09952 27.9655 9.41163C27.9655 9.72375 27.8386 10.0231 27.6129 10.2438C27.3871 10.4645 27.0809 10.5885 26.7616 10.5885H13.5215C13.2022 10.5885 12.896 10.4645 12.6702 10.2438C12.4444 10.0231 12.3176 9.72375 12.3176 9.41163Z" fill="#1A272D"/>
<path d="M39.3989 21.1769H21.3446C21.1852 21.1769 21.0323 21.2388 20.9195 21.349C20.8068 21.4592 20.7435 21.6087 20.7435 21.7645V33.0406C20.7431 33.1464 20.772 33.2503 20.8271 33.3414C20.8821 33.4324 20.9613 33.5073 21.0563 33.558C21.1513 33.6088 21.2585 33.6335 21.3666 33.6296C21.4748 33.6258 21.5799 33.5934 21.6708 33.536L26.2115 30.6822C26.3069 30.6222 26.4178 30.5897 26.5313 30.5885H39.3925C39.5519 30.5885 39.7048 30.5265 39.8176 30.4163C39.9303 30.3061 39.9936 30.1567 39.9936 30.0008V21.7645C39.9936 21.6097 39.9312 21.4612 39.8198 21.3512C39.7085 21.2412 39.5572 21.1785 39.3989 21.1769ZM26.768 25.8827C26.768 26.1948 26.6411 26.4941 26.4153 26.7148C26.1895 26.9355 25.8833 27.0595 25.564 27.0595C25.2447 27.0595 24.9384 26.9355 24.7126 26.7148C24.4869 26.4941 24.3601 26.1948 24.3601 25.8827C24.3601 25.5706 24.4869 25.2712 24.7126 25.0505C24.9384 24.8298 25.2447 24.7058 25.564 24.7058C25.8833 24.7058 26.1895 24.8298 26.4153 25.0505C26.6411 25.2712 26.768 25.5706 26.768 25.8827ZM31.5821 25.8827C31.5821 26.1948 31.4552 26.4941 31.2294 26.7148C31.0037 26.9355 30.6974 27.0595 30.3781 27.0595C30.0588 27.0595 29.7526 26.9355 29.5268 26.7148C29.3011 26.4941 29.1742 26.1948 29.1742 25.8827C29.1742 25.5706 29.3011 25.2712 29.5268 25.0505C29.7526 24.8298 30.0588 24.7058 30.3781 24.7058C30.6974 24.7058 31.0037 24.8298 31.2294 25.0505C31.4552 25.2712 31.5821 25.5706 31.5821 25.8827ZM36.3962 25.8827C36.3962 26.1948 36.2693 26.4941 36.0435 26.7148C35.8178 26.9355 35.5116 27.0595 35.1923 27.0595C34.873 27.0595 34.5667 26.9355 34.3409 26.7148C34.1152 26.4941 33.9883 26.1948 33.9883 25.8827C33.9883 25.5706 34.1152 25.2712 34.3409 25.0505C34.5667 24.8298 34.873 24.7058 35.1923 24.7058C35.5116 24.7058 35.8178 24.8298 36.0435 25.0505C36.2693 25.2712 36.3962 25.5706 36.3962 25.8827Z" fill="#1A272D"/>
<path d="M38.4811 36.4711H0.604372C0.492766 36.4708 0.383253 36.5006 0.287881 36.5572C0.19251 36.6139 0.115001 36.6952 0.0639021 36.7922C0.0128028 36.8892 -0.00994873 36.9981 -0.00175379 37.1069C0.00644114 37.2157 0.0451949 37.3202 0.110275 37.4088C0.660557 38.2075 1.40312 38.8619 2.27262 39.3145C3.14213 39.7672 4.11204 40.0042 5.09715 40.0047H33.9819C34.9677 40.0045 35.9384 39.7675 36.8085 39.3146C37.6786 38.8616 38.4215 38.2067 38.9719 37.4072C39.0364 37.3188 39.0748 37.2148 39.0828 37.1065C39.0909 36.9982 39.0685 36.8898 39.0178 36.7932C38.9672 36.6966 38.8903 36.6155 38.7956 36.5586C38.701 36.5018 38.5922 36.4715 38.4811 36.4711Z" fill="#EB5728"/>
</g>
<defs>
<clipPath id="clip0_521_673">
<rect width="40" height="40" fill="white"/>
</clipPath>
</defs>
</svg>
