<svg width="32" height="32" viewBox="0 0 32 32" fill="none" xmlns="http://www.w3.org/2000/svg">
<g clip-path="url(#clip0_521_177)">
<path d="M15.0588 4.18479C15.0588 3.07492 14.7216 2.01049 14.1214 1.22569C13.5213 0.440885 12.7073 0 11.8585 0H3.76497V27.0767H15.0588V4.18479ZM11.3576 22.152H7.52993C7.2803 22.152 7.04089 22.0223 6.86437 21.7915C6.68786 21.5607 6.58867 21.2476 6.58867 20.9212C6.58867 20.5947 6.68786 20.2817 6.86437 20.0508C7.04089 19.82 7.2803 19.6903 7.52993 19.6903H11.3576C11.6073 19.6903 11.8467 19.82 12.0232 20.0508C12.1997 20.2817 12.2989 20.5947 12.2989 20.9212C12.2989 21.2476 12.1997 21.5607 12.0232 21.7915C11.8467 22.0223 11.6073 22.152 11.3576 22.152ZM11.3576 17.2287H7.52993C7.2803 17.2287 7.04089 17.099 6.86437 16.8682C6.68786 16.6374 6.58867 16.3243 6.58867 15.9979C6.58867 15.6714 6.68786 15.3584 6.86437 15.1275C7.04089 14.8967 7.2803 14.7671 7.52993 14.7671H11.3576C11.6073 14.7671 11.8467 14.8967 12.0232 15.1275C12.1997 15.3584 12.2989 15.6714 12.2989 15.9979C12.2989 16.3243 12.1997 16.6374 12.0232 16.8682C11.8467 17.099 11.6073 17.2287 11.3576 17.2287ZM11.3576 12.3054H7.52993C7.2803 12.3054 7.04089 12.1757 6.86437 11.9449C6.68786 11.7141 6.58867 11.401 6.58867 11.0746C6.58867 10.7481 6.68786 10.4351 6.86437 10.2043C7.04089 9.97344 7.2803 9.84375 7.52993 9.84375H11.3576C11.6073 9.84375 11.8467 9.97344 12.0232 10.2043C12.1997 10.4351 12.2989 10.7481 12.2989 11.0746C12.2989 11.401 12.1997 11.7141 12.0232 11.9449C11.8467 12.1757 11.6073 12.3054 11.3576 12.3054Z" fill="#EB5728"/>
<path d="M31.7449 3.69141H30.3731C30.3055 3.69141 30.2407 3.7264 30.1929 3.78871C30.145 3.85102 30.118 3.93556 30.1177 4.02387V29.5359H1.88052V4.02529C1.88052 3.98151 1.87392 3.93816 1.86108 3.89773C1.84823 3.8573 1.82941 3.82058 1.80569 3.78969C1.78196 3.7588 1.7538 3.73435 1.72283 3.71773C1.69186 3.7011 1.65869 3.69264 1.62521 3.69283H0.253383C0.185854 3.69282 0.121071 3.7278 0.0732189 3.79011C0.0253672 3.85241 -0.00166698 3.93698 -0.00195312 4.02529V31.9989H32.0002V4.02529C32.0004 3.98139 31.9938 3.93789 31.9811 3.8973C31.9683 3.85671 31.9495 3.81982 31.9258 3.78878C31.902 3.75774 31.8738 3.73316 31.8428 3.71645C31.8117 3.69974 31.7785 3.69122 31.7449 3.69141Z" fill="#EB5728"/>
<path d="M28.235 0H20.1415C19.2927 0 18.4787 0.440885 17.8786 1.22569C17.2784 2.01049 16.9413 3.07492 16.9413 4.18479V27.0767H28.235V0ZM24.4084 22.1534H20.7062C20.4566 22.1534 20.2171 22.0237 20.0406 21.7929C19.8641 21.5621 19.765 21.249 19.765 20.9226C19.765 20.5962 19.8641 20.2831 20.0406 20.0523C20.2171 19.8214 20.4566 19.6918 20.7062 19.6918H24.4084C24.658 19.6918 24.8974 19.8214 25.074 20.0523C25.2505 20.2831 25.3497 20.5962 25.3497 20.9226C25.3497 21.249 25.2505 21.5621 25.074 21.7929C24.8974 22.0237 24.658 22.1534 24.4084 22.1534ZM24.4084 17.2301H20.7062C20.4566 17.2301 20.2171 17.1004 20.0406 16.8696C19.8641 16.6388 19.765 16.3257 19.765 15.9993C19.765 15.6729 19.8641 15.3598 20.0406 15.129C20.2171 14.8981 20.4566 14.7685 20.7062 14.7685H24.4084C24.658 14.7685 24.8974 14.8981 25.074 15.129C25.2505 15.3598 25.3497 15.6729 25.3497 15.9993C25.3497 16.3257 25.2505 16.6388 25.074 16.8696C24.8974 17.1004 24.658 17.2301 24.4084 17.2301ZM24.4084 12.3068H20.7062C20.4566 12.3068 20.2171 12.1771 20.0406 11.9463C19.8641 11.7155 19.765 11.4024 19.765 11.076C19.765 10.7496 19.8641 10.4365 20.0406 10.2057C20.2171 9.97485 20.4566 9.84517 20.7062 9.84517H24.4084C24.658 9.84517 24.8974 9.97485 25.074 10.2057C25.2505 10.4365 25.3497 10.7496 25.3497 11.076C25.3497 11.4024 25.2505 11.7155 25.074 11.9463C24.8974 12.1771 24.658 12.3068 24.4084 12.3068Z" fill="#EB5728"/>
</g>
<defs>
<clipPath id="clip0_521_177">
<rect width="32" height="32" fill="white"/>
</clipPath>
</defs>
</svg>
