<svg width="32" height="32" viewBox="0 0 32 32" fill="none" xmlns="http://www.w3.org/2000/svg">
<g clip-path="url(#clip0_521_138)">
<path d="M30.075 26.8239C30.075 26.762 30.0625 26.7007 30.0383 26.6435C30.0141 26.5863 29.9785 26.5344 29.9337 26.4906C29.889 26.4468 29.8358 26.4121 29.7773 26.3884C29.7188 26.3647 29.6561 26.3525 29.5928 26.3525H21.7904C21.6996 26.3535 21.6109 26.3795 21.5346 26.4276L20.1557 27.294H29.5928C29.6561 27.2942 29.7187 27.2821 29.7772 27.2586C29.8357 27.235 29.8889 27.2004 29.9337 27.1568C29.9785 27.1131 30.014 27.0612 30.0382 27.0041C30.0625 26.947 30.075 26.8857 30.075 26.8239Z" fill="#EB5728"/>
<path d="M1.67048 27.2939H14.1876C14.2507 27.2939 14.3132 27.2817 14.3716 27.2581C14.4299 27.2345 14.483 27.1998 14.5277 27.1562C14.5723 27.1125 14.6077 27.0607 14.6319 27.0037C14.6561 26.9466 14.6685 26.8855 14.6685 26.8237V15.5299C14.6685 15.4048 14.7193 15.285 14.8097 15.1966C14.9001 15.1082 15.0228 15.0585 15.1507 15.0585H29.5928C29.6561 15.0587 29.7187 15.0466 29.7772 15.0231C29.8357 14.9995 29.8889 14.9649 29.9337 14.9213C29.9785 14.8776 30.014 14.8257 30.0382 14.7686C30.0625 14.7115 30.075 14.6502 30.075 14.5884V8.94082C30.075 8.87898 30.0625 8.81773 30.0382 8.76061C30.014 8.7035 29.9785 8.65161 29.9337 8.60794C29.8889 8.56427 29.8357 8.52968 29.7772 8.50613C29.7187 8.48258 29.6561 8.47054 29.5928 8.4707H27.6678C27.6045 8.47054 27.5418 8.48258 27.4833 8.50613C27.4248 8.52968 27.3717 8.56427 27.3269 8.60794C27.2821 8.65161 27.2465 8.7035 27.2223 8.76061C27.198 8.81773 27.1855 8.87898 27.1855 8.94082V12.7054C27.1857 12.7673 27.1734 12.8285 27.1493 12.8857C27.1252 12.9429 27.0898 12.9949 27.0451 13.0387C27.0005 13.0825 26.9474 13.1172 26.8889 13.1409C26.8305 13.1646 26.7679 13.1768 26.7046 13.1768H12.4467C12.3598 13.1766 12.2745 13.1995 12.1999 13.2431L5.76996 17.014C5.69682 17.0569 5.61332 17.08 5.52801 17.0811C5.44271 17.0822 5.35863 17.0611 5.28438 17.0201C5.21012 16.979 5.14832 16.9194 5.10532 16.8474C5.06231 16.7754 5.03967 16.6935 5.03961 16.6101V8.94082C5.03961 8.81614 4.98891 8.69655 4.89872 8.60839C4.80852 8.52022 4.6862 8.4707 4.55865 8.4707H1.67048C1.60721 8.47054 1.54455 8.48258 1.48605 8.50613C1.42755 8.52968 1.37439 8.56427 1.3296 8.60794C1.2848 8.65161 1.24924 8.7035 1.22499 8.76061C1.20074 8.81773 1.18826 8.87898 1.18826 8.94082V26.82C1.18775 26.8822 1.1999 26.9438 1.22392 27.0014C1.24795 27.0589 1.28338 27.1112 1.32822 27.1553C1.37307 27.1994 1.42642 27.2343 1.48517 27.2581C1.54392 27.2819 1.60689 27.294 1.67048 27.2939Z" fill="#EB5728"/>
<path d="M7.69496 13.6893L11.6601 11.3613C11.7351 11.3174 11.8208 11.2941 11.9082 11.2937H24.7732C24.8365 11.2939 24.8992 11.2819 24.9577 11.2583C25.0162 11.2348 25.0693 11.2002 25.1141 11.1565C25.1589 11.1128 25.1945 11.061 25.2187 11.0038C25.243 10.9467 25.2554 10.8855 25.2554 10.8236V0.469961C25.256 0.407805 25.2439 0.346166 25.2198 0.288614C25.1958 0.231062 25.1603 0.178731 25.1155 0.134662C25.0706 0.090594 25.0173 0.055656 24.9585 0.0318704C24.8998 0.00808492 24.8368 -0.00407184 24.7732 -0.00390455H7.44808C7.38481 -0.00406902 7.32215 0.0079678 7.26365 0.0315194C7.20515 0.055071 7.15199 0.0896798 7.1072 0.13335C7.06241 0.17702 7.0269 0.228901 7.00265 0.286019C6.9784 0.343137 6.96586 0.404366 6.96586 0.466207V13.2817C6.96497 13.3654 6.98694 13.4478 7.02951 13.5204C7.07207 13.593 7.13369 13.6532 7.208 13.6947C7.28231 13.7362 7.36666 13.7576 7.45226 13.7567C7.53786 13.7557 7.62164 13.7325 7.69496 13.6893ZM9.85403 3.76448C9.85403 3.51479 9.95552 3.27531 10.1361 3.09875C10.3168 2.92219 10.5618 2.82301 10.8172 2.82301H16.5948C16.8502 2.82301 17.0952 2.92219 17.2758 3.09875C17.4564 3.27531 17.5579 3.51479 17.5579 3.76448C17.5579 4.01417 17.4564 4.25363 17.2758 4.43019C17.0952 4.60675 16.8502 4.70596 16.5948 4.70596H10.8172C10.5618 4.70596 10.3168 4.60675 10.1361 4.43019C9.95552 4.25363 9.85403 4.01417 9.85403 3.76448ZM9.85403 7.52911C9.85403 7.27942 9.95552 7.03996 10.1361 6.8634C10.3168 6.68684 10.5618 6.58764 10.8172 6.58764H21.4093C21.6647 6.58764 21.9097 6.68684 22.0903 6.8634C22.2709 7.03996 22.3724 7.27942 22.3724 7.52911C22.3724 7.77881 22.2709 8.01827 22.0903 8.19483C21.9097 8.37139 21.6647 8.47059 21.4093 8.47059H10.8172C10.5618 8.47059 10.3168 8.37139 10.1361 8.19483C9.95552 8.01827 9.85403 7.77881 9.85403 7.52911Z" fill="#EB5728"/>
<path d="M31.5191 16.9414H17.0757C16.9481 16.9414 16.8258 16.9909 16.7356 17.0791C16.6454 17.1673 16.5948 17.2868 16.5948 17.4115V26.4324C16.5945 26.517 16.6176 26.6001 16.6617 26.673C16.7057 26.7459 16.7691 26.8057 16.845 26.8463C16.921 26.8869 17.0068 26.9067 17.0933 26.9036C17.1798 26.9005 17.2639 26.8746 17.3366 26.8287L20.9692 24.5457C21.0455 24.4976 21.1342 24.4716 21.225 24.4707H31.514C31.6415 24.4707 31.7639 24.4211 31.854 24.333C31.9442 24.2448 31.9949 24.1252 31.9949 24.0006V17.4115C31.9949 17.2877 31.9449 17.1689 31.8559 17.0808C31.7668 16.9928 31.6458 16.9427 31.5191 16.9414ZM21.4144 20.706C21.4144 20.9557 21.3129 21.1952 21.1323 21.3718C20.9516 21.5483 20.7066 21.6475 20.4512 21.6475C20.1957 21.6475 19.9507 21.5483 19.7701 21.3718C19.5895 21.1952 19.4881 20.9557 19.4881 20.706C19.4881 20.4563 19.5895 20.2169 19.7701 20.0403C19.9507 19.8637 20.1957 19.7646 20.4512 19.7646C20.7066 19.7646 20.9516 19.8637 21.1323 20.0403C21.3129 20.2169 21.4144 20.4563 21.4144 20.706ZM25.2657 20.706C25.2657 20.9557 25.1642 21.1952 24.9836 21.3718C24.8029 21.5483 24.5579 21.6475 24.3025 21.6475C24.047 21.6475 23.8021 21.5483 23.6215 21.3718C23.4408 21.1952 23.3394 20.9557 23.3394 20.706C23.3394 20.4563 23.4408 20.2169 23.6215 20.0403C23.8021 19.8637 24.047 19.7646 24.3025 19.7646C24.5579 19.7646 24.8029 19.8637 24.9836 20.0403C25.1642 20.2169 25.2657 20.4563 25.2657 20.706ZM29.117 20.706C29.117 20.9557 29.0155 21.1952 28.8348 21.3718C28.6542 21.5483 28.4093 21.6475 28.1538 21.6475C27.8984 21.6475 27.6534 21.5483 27.4728 21.3718C27.2921 21.1952 27.1907 20.9557 27.1907 20.706C27.1907 20.4563 27.2921 20.2169 27.4728 20.0403C27.6534 19.8637 27.8984 19.7646 28.1538 19.7646C28.4093 19.7646 28.6542 19.8637 28.8348 20.0403C29.0155 20.2169 29.117 20.4563 29.117 20.706Z" fill="#EB5728"/>
<path d="M30.7849 29.1768H0.4835C0.394215 29.1765 0.306604 29.2004 0.230307 29.2457C0.15401 29.291 0.0920031 29.3561 0.0511236 29.4337C0.0102442 29.5112 -0.00795698 29.5984 -0.00140103 29.6854C0.00515492 29.7724 0.0361579 29.856 0.0882219 29.9269C0.528447 30.5659 1.1225 31.0894 1.8181 31.4515C2.5137 31.8136 3.28963 32.0032 4.07772 32.0037H27.1855C27.9742 32.0035 28.7507 31.8139 29.4468 31.4516C30.1429 31.0892 30.7372 30.5652 31.1775 29.9257C31.2291 29.855 31.2598 29.7717 31.2663 29.6851C31.2727 29.5985 31.2548 29.5118 31.2142 29.4345C31.1737 29.3572 31.1122 29.2923 31.0365 29.2468C30.9608 29.2014 30.8737 29.1771 30.7849 29.1768Z" fill="#EB5728"/>
</g>
<defs>
<clipPath id="clip0_521_138">
<rect width="32" height="32" fill="white"/>
</clipPath>
</defs>
</svg>
