<svg width="40" height="40" viewBox="0 0 40 40" fill="none" xmlns="http://www.w3.org/2000/svg">
<g clip-path="url(#clip0_521_704)">
<path d="M2.38354 11.8438V32.6029H38.1183V4.4447H35.7349L27.7947 11.8458C0.956985 11.8478 2.66982 11.8618 2.38354 11.8438ZM20.2565 16.2965C20.2565 16.1019 20.2874 15.9093 20.3473 15.7296C20.4072 15.5499 20.495 15.3866 20.6057 15.2491C20.7164 15.1116 20.8478 15.0026 20.9924 14.9284C21.137 14.8541 21.2919 14.816 21.4483 14.8163H25.0219C25.1783 14.816 25.3333 14.8541 25.4779 14.9284C25.6224 15.0026 25.7539 15.1116 25.8645 15.2491C25.9752 15.3866 26.063 15.5499 26.1229 15.7296C26.1828 15.9093 26.2137 16.1019 26.2137 16.2965C26.2137 16.491 26.1828 16.6837 26.1229 16.8634C26.063 17.0431 25.9752 17.2064 25.8645 17.3439C25.7539 17.4814 25.6224 17.5903 25.4779 17.6646C25.3333 17.7389 25.1783 17.777 25.0219 17.7767H21.4483C21.2919 17.777 21.137 17.7389 20.9924 17.6646C20.8478 17.5903 20.7164 17.4814 20.6057 17.3439C20.495 17.2064 20.4072 17.0431 20.3473 16.8634C20.2874 16.6837 20.2565 16.491 20.2565 16.2965ZM16.6829 28.1503C16.6829 28.5428 16.5576 28.9193 16.3344 29.1969C16.1112 29.4745 15.8084 29.6305 15.4928 29.6305H8.33904C8.18261 29.6308 8.02767 29.5927 7.88309 29.5184C7.73851 29.4441 7.60718 29.3351 7.49649 29.1976C7.3858 29.0602 7.29796 28.8969 7.23805 28.7172C7.17814 28.5375 7.14734 28.3448 7.14734 28.1503C7.14734 27.9557 7.17814 27.7631 7.23805 27.5834C7.29796 27.4036 7.3858 27.2404 7.49649 27.1029C7.60718 26.9654 7.73851 26.8564 7.88309 26.7821C8.02767 26.7079 8.18261 26.6698 8.33904 26.67H15.4863C15.802 26.67 16.1047 26.826 16.3279 27.1036C16.5511 27.3812 16.6765 27.7577 16.6765 28.1503H16.6829ZM15.4928 23.7056H8.33904C8.02297 23.7056 7.71983 23.5494 7.49633 23.2715C7.27284 22.9935 7.14734 22.6165 7.14734 22.2234C7.14734 21.8303 7.27284 21.4533 7.49633 21.1753C7.71983 20.8973 8.02297 20.7411 8.33904 20.7411H15.4863C15.8024 20.7411 16.1055 20.8973 16.329 21.1753C16.5525 21.4533 16.6781 21.8303 16.6781 22.2234C16.6781 22.6165 16.5525 22.9935 16.329 23.2715C16.1055 23.5494 15.8024 23.7056 15.4863 23.7056H15.4928ZM16.6829 16.3045C16.6829 16.6971 16.5576 17.0736 16.3344 17.3512C16.1112 17.6288 15.8084 17.7847 15.4928 17.7847H8.33904C8.18261 17.785 8.02767 17.7469 7.88309 17.6726C7.73851 17.5983 7.60718 17.4893 7.49649 17.3519C7.3858 17.2144 7.29796 17.0511 7.23805 16.8714C7.17814 16.6917 7.14734 16.499 7.14734 16.3045C7.14734 16.1099 7.17814 15.9173 7.23805 15.7376C7.29796 15.5578 7.3858 15.3946 7.49649 15.2571C7.60718 15.1196 7.73851 15.0106 7.88309 14.9364C8.02767 14.8621 8.18261 14.824 8.33904 14.8243H15.4863C15.802 14.8243 16.1047 14.9802 16.3279 15.2578C16.5511 15.5354 16.6765 15.9119 16.6765 16.3045H16.6829ZM33.3594 28.1563C33.3594 28.5488 33.234 28.9253 33.0108 29.2029C32.7876 29.4805 32.4848 29.6365 32.1692 29.6365H21.4483C21.2919 29.6368 21.137 29.5987 20.9924 29.5244C20.8478 29.4501 20.7164 29.3411 20.6057 29.2036C20.495 29.0662 20.4072 28.9029 20.3473 28.7232C20.2874 28.5435 20.2565 28.3508 20.2565 28.1563C20.2565 27.9617 20.2874 27.7691 20.3473 27.5893C20.4072 27.4096 20.495 27.2463 20.6057 27.1089C20.7164 26.9714 20.8478 26.8624 20.9924 26.7881C21.137 26.7139 21.2919 26.6758 21.4483 26.676H32.158C32.4736 26.676 32.7763 26.832 32.9995 27.1096C33.2227 27.3872 33.3481 27.7637 33.3481 28.1563H33.3594ZM33.3594 22.2294C33.3596 22.4239 33.329 22.6166 33.2692 22.7965C33.2095 22.9763 33.1219 23.1397 33.0113 23.2773C32.9008 23.415 32.7696 23.5242 32.6251 23.5987C32.4806 23.6732 32.3256 23.7116 32.1692 23.7116H21.4483C21.1323 23.7116 20.8291 23.5554 20.6056 23.2775C20.3821 22.9995 20.2565 22.6225 20.2565 22.2294C20.2565 21.8363 20.3821 21.4593 20.6056 21.1813C20.8291 20.9033 21.1323 20.7471 21.4483 20.7471H32.158C32.3144 20.7464 32.4694 20.7839 32.6141 20.8577C32.7589 20.9315 32.8905 21.0401 33.0015 21.1772C33.1125 21.3143 33.2006 21.4772 33.2609 21.6568C33.3212 21.8363 33.3525 22.0288 33.353 22.2234L33.3594 22.2294Z" fill="#1A272D"/>
<path d="M27.0113 8.88932L31.7558 4.44466L27.0113 0C24.6069 1.96029 24.5989 6.92703 27.0113 8.88932Z" fill="#1A272D"/>
<path d="M2.6616 8.88937H5.95696V-0.00195312H2.6616C1.95594 -0.00195329 1.27914 0.346561 0.780015 0.966967C0.280889 1.58737 0.00024376 2.4289 -0.000182619 3.30655V5.57889C-0.000394052 6.0137 0.0683429 6.4443 0.202033 6.84607C0.335722 7.24784 0.531787 7.61289 0.778994 7.92035C1.0262 8.22781 1.31972 8.47164 1.64275 8.63792C1.96578 8.80419 2.312 8.88963 2.6616 8.88937Z" fill="#1A272D"/>
<path d="M15.9848 8.88932H23.8109C23.1652 7.54581 22.8243 6.00986 22.8243 4.44466C22.8243 2.87946 23.1652 1.34351 23.8109 0H8.33899V8.88932H15.9848Z" fill="#1A272D"/>
<path d="M0.500183 35.5574C0.964411 36.8773 1.72768 38.0006 2.69675 38.7899C3.66583 39.5792 4.79871 40.0004 5.95709 40.002H34.5446C35.7029 39.9999 36.8357 39.5785 37.8047 38.7893C38.7737 38 39.537 36.877 40.0016 35.5574H0.500183Z" fill="#EB5728"/>
</g>
<defs>
<clipPath id="clip0_521_704">
<rect width="40" height="40" fill="white"/>
</clipPath>
</defs>
</svg>
