<svg width="40" height="40" viewBox="0 0 40 40" fill="none" xmlns="http://www.w3.org/2000/svg">
<g clip-path="url(#clip0_521_719)">
<path d="M26.0514 36.9824C26.8094 39.0662 27.715 39.9984 28.2761 39.9984C28.8372 39.9984 29.7428 39.0662 30.5008 36.9824C31.2456 34.9396 31.6952 32.2857 31.7903 29.4106H24.7619C24.8587 32.2857 25.305 34.9396 26.0514 36.9824Z" fill="#EB5728"/>
<path d="M40 27.0582C39.7696 24.8058 38.8947 22.6673 37.48 20.8979C36.0652 19.1285 34.1704 17.8031 32.0217 17.08C33.4785 19.8895 34.0462 23.8605 34.1545 27.0582H40Z" fill="#EB5728"/>
<path d="M28.2761 16.4705C27.715 16.4705 26.8094 17.4026 26.0514 19.4864C25.3066 21.5276 24.8587 24.1831 24.7619 27.0582H31.7903C31.6952 24.1831 31.2456 21.5276 30.5008 19.4864C29.7428 17.4026 28.8372 16.4705 28.2761 16.4705Z" fill="#EB5728"/>
<path d="M32.0217 39.3889C34.1704 38.6658 36.0652 37.3404 37.48 35.571C38.8947 33.8016 39.7696 31.663 40 29.4106H34.1479C34.0462 32.6035 33.4785 36.5794 32.0217 39.3889Z" fill="#EB5728"/>
<path d="M16.5522 27.0582H22.4044C22.5061 23.8605 23.0754 19.8878 24.5372 17.08C22.3873 17.8021 20.491 19.127 19.0751 20.8965C17.6591 22.666 16.7833 24.8051 16.5522 27.0582Z" fill="#EB5728"/>
<path d="M16.5522 29.4106C16.7827 31.663 17.6576 33.8016 19.0723 35.571C20.4871 37.3404 22.3819 38.6658 24.5306 39.3889C23.0737 36.5794 22.5061 32.6068 22.3978 29.4106H16.5522Z" fill="#EB5728"/>
<path d="M14.1372 28.2344C14.1392 26.2819 14.5464 24.351 15.3331 22.5635C16.1199 20.776 17.2691 19.1708 18.7083 17.849C20.1475 16.5273 21.8454 15.5177 23.6949 14.884C25.5444 14.2502 27.5054 14.0062 29.4541 14.1671V0.570039C29.4541 0.419275 29.3941 0.274673 29.2873 0.168067C29.1806 0.0614606 29.0358 0.00158691 28.8848 0.00158691H0.569291C0.418304 0.00158691 0.27351 0.0614606 0.166746 0.168067C0.0599822 0.274673 0 0.419275 0 0.570039V39.4315C0 39.5822 0.0599822 39.7268 0.166746 39.8334C0.27351 39.94 0.418304 39.9999 0.569291 39.9999H20.47C18.5238 38.7133 16.9269 36.9654 15.8218 34.9124C14.7168 32.8594 14.138 30.5651 14.1372 28.2344ZM4.71186 5.88108C4.7123 5.56926 4.83655 5.27033 5.05737 5.04984C5.27819 4.82935 5.57753 4.70529 5.88982 4.70486H23.5626C23.8752 4.70486 24.1749 4.82872 24.3961 5.04926C24.6173 5.2698 24.7418 5.56897 24.7422 5.88108C24.7418 6.19319 24.6173 6.49236 24.3961 6.7129C24.1749 6.93344 23.8752 7.05732 23.5626 7.05732H5.88982C5.57753 7.05688 5.27819 6.93283 5.05737 6.71234C4.83655 6.49185 4.7123 6.1929 4.71186 5.88108ZM4.71186 10.5877C4.71186 10.2757 4.83598 9.97652 5.05689 9.75593C5.2778 9.53535 5.5774 9.41142 5.88982 9.41142H23.5626C23.7174 9.4112 23.8708 9.44147 24.0139 9.50048C24.157 9.5595 24.287 9.64611 24.3966 9.75535C24.5062 9.8646 24.5931 9.99433 24.6524 10.1371C24.7117 10.28 24.7422 10.4331 24.7422 10.5877C24.7422 10.7423 24.7117 10.8953 24.6524 11.0381C24.5931 11.181 24.5062 11.3107 24.3966 11.42C24.287 11.5292 24.157 11.6158 24.0139 11.6748C23.8708 11.7338 23.7174 11.7641 23.5626 11.7639H5.88982C5.5774 11.7639 5.2778 11.64 5.05689 11.4194C4.83598 11.1988 4.71186 10.8996 4.71186 10.5877ZM9.42536 35.2934H5.88982C5.58479 35.282 5.29606 35.153 5.08429 34.9335C4.87251 34.714 4.7542 34.4211 4.7542 34.1163C4.7542 33.8116 4.87251 33.5186 5.08429 33.2991C5.29606 33.0796 5.58479 32.9506 5.88982 32.9393H9.42536C9.73039 32.9506 10.0191 33.0796 10.2309 33.2991C10.4427 33.5186 10.561 33.8116 10.561 34.1163C10.561 34.4211 10.4427 34.714 10.2309 34.9335C10.0191 35.153 9.73039 35.282 9.42536 35.2934ZM9.42536 30.5868H5.88982C5.73512 30.5868 5.58196 30.5564 5.43905 30.4973C5.29613 30.4382 5.16627 30.3515 5.05689 30.2423C4.9475 30.1331 4.86074 30.0034 4.80154 29.8607C4.74234 29.718 4.71186 29.5651 4.71186 29.4106C4.71186 29.2561 4.74234 29.1032 4.80154 28.9605C4.86074 28.8178 4.9475 28.6881 5.05689 28.5789C5.16627 28.4696 5.29613 28.383 5.43905 28.3239C5.58196 28.2648 5.73512 28.2344 5.88982 28.2344H9.42536C9.73778 28.2344 10.0374 28.3583 10.2583 28.5789C10.4792 28.7995 10.6033 29.0986 10.6033 29.4106C10.6033 29.7225 10.4792 30.0217 10.2583 30.2423C10.0374 30.4629 9.73778 30.5868 9.42536 30.5868ZM10.6033 24.7057C10.6033 25.0176 10.4792 25.3168 10.2583 25.5374C10.0374 25.758 9.73778 25.8819 9.42536 25.8819H5.88982C5.57753 25.8815 5.27819 25.7574 5.05737 25.5369C4.83655 25.3164 4.7123 25.0175 4.71186 24.7057C4.7123 24.3939 4.83655 24.0949 5.05737 23.8744C5.27819 23.6539 5.57753 23.5299 5.88982 23.5295H9.42536C9.58006 23.5295 9.73326 23.5599 9.87617 23.619C10.0191 23.6781 10.1489 23.7647 10.2583 23.874C10.3677 23.9832 10.4545 24.1128 10.5137 24.2556C10.5729 24.3983 10.6033 24.5512 10.6033 24.7057ZM9.42536 21.1754H5.88982C5.5774 21.1754 5.2778 21.0514 5.05689 20.8308C4.83598 20.6103 4.71186 20.3111 4.71186 19.9991C4.71186 19.6872 4.83598 19.388 5.05689 19.1674C5.2778 18.9468 5.5774 18.8229 5.88982 18.8229H9.42536C9.73778 18.8229 10.0374 18.9468 10.2583 19.1674C10.4792 19.388 10.6033 19.6872 10.6033 19.9991C10.6033 20.3111 10.4792 20.6103 10.2583 20.8308C10.0374 21.0514 9.73778 21.1754 9.42536 21.1754ZM9.42536 16.4704H5.88982C5.58479 16.4591 5.29606 16.3301 5.08429 16.1106C4.87251 15.8911 4.7542 15.5982 4.7542 15.2934C4.7542 14.9886 4.87251 14.6957 5.08429 14.4762C5.29606 14.2567 5.58479 14.1277 5.88982 14.1163H9.42536C9.73039 14.1277 10.0191 14.2567 10.2309 14.4762C10.4427 14.6957 10.561 14.9886 10.561 15.2934C10.561 15.5982 10.4427 15.8911 10.2309 16.1106C10.0191 16.3301 9.73039 16.4591 9.42536 16.4704Z" fill="#1A272D"/>
</g>
<defs>
<clipPath id="clip0_521_719">
<rect width="40" height="40" fill="white"/>
</clipPath>
</defs>
</svg>
