<svg width="40" height="40" viewBox="0 0 40 40" fill="none" xmlns="http://www.w3.org/2000/svg">
<g clip-path="url(#clip0_521_737)">
<path d="M18.2321 0H0.825133C0.606232 0 0.396348 0.0869635 0.241562 0.241749C0.086776 0.396535 -0.000244141 0.606477 -0.000244141 0.825377V4.70598H14.7108L18.2321 0Z" fill="#1A272D"/>
<path d="M10.18 32.9403L5.474 36.4694L10.18 39.9985C12.5601 38.4422 12.5647 34.4997 10.18 32.9403Z" fill="#EB5728"/>
<path d="M35.2938 30.5881H36.4692V11.7642H-0.000244141V36.4694H1.54828L9.39163 30.585L35.2938 30.5881ZM7.05795 15.2933H17.6468C17.8049 15.2875 17.9624 15.3137 18.1101 15.3702C18.2578 15.4268 18.3926 15.5124 18.5065 15.6222C18.6203 15.732 18.7108 15.8636 18.7726 16.0092C18.8345 16.1547 18.8664 16.3112 18.8664 16.4694C18.8664 16.6275 18.8345 16.784 18.7726 16.9296C18.7108 17.0751 18.6203 17.2067 18.5065 17.3165C18.3926 17.4263 18.2578 17.512 18.1101 17.5685C17.9624 17.625 17.8049 17.6512 17.6468 17.6455H7.05795C6.89992 17.6512 6.74238 17.625 6.59468 17.5685C6.44698 17.512 6.31216 17.4263 6.19833 17.3165C6.08449 17.2067 5.99394 17.0751 5.9321 16.9296C5.87025 16.784 5.83841 16.6275 5.83841 16.4694C5.83841 16.3112 5.87025 16.1547 5.9321 16.0092C5.99394 15.8636 6.08449 15.732 6.19833 15.6222C6.31216 15.5124 6.44698 15.4268 6.59468 15.3702C6.74238 15.3137 6.89992 15.2875 7.05795 15.2933ZM5.88113 21.1777C5.88113 20.8655 6.00506 20.5662 6.22577 20.3455C6.44648 20.1248 6.74583 20.0008 7.05795 20.0008H29.411C29.7231 20.0008 30.0224 20.1248 30.2431 20.3455C30.4638 20.5662 30.5879 20.8655 30.5879 21.1777C30.5879 21.4898 30.4638 21.7891 30.2431 22.0098C30.0224 22.2306 29.7231 22.3545 29.411 22.3545H7.05795C6.74595 22.3541 6.44685 22.23 6.22623 22.0094C6.00561 21.7888 5.88154 21.4897 5.88113 21.1777ZM5.88113 25.8836C5.88113 25.5715 6.00506 25.2722 6.22577 25.0515C6.44648 24.8307 6.74583 24.7068 7.05795 24.7068H29.411C29.7231 24.7068 30.0224 24.8307 30.2431 25.0515C30.4638 25.2722 30.5879 25.5715 30.5879 25.8836C30.5879 26.0381 30.5574 26.1911 30.4983 26.3338C30.4391 26.4765 30.3524 26.6061 30.2431 26.7153C30.1338 26.8244 30.004 26.911 29.8612 26.97C29.7184 27.0289 29.5654 27.0592 29.411 27.059H7.05795C6.74609 27.059 6.44704 26.9352 6.22638 26.7148C6.00571 26.4944 5.88154 26.1955 5.88113 25.8836Z" fill="#1A272D"/>
<path d="M36.4692 5.28824V0.82074C36.4694 0.712294 36.4482 0.604875 36.4068 0.504645C36.3654 0.404415 36.3046 0.313341 36.2279 0.236659C36.1512 0.159976 36.0601 0.0991864 35.9599 0.0577802C35.8597 0.016374 35.7522 -0.00484125 35.6438 -0.00463721H21.1744L15.8799 7.05356H-0.000244141V9.40576H36.4692V5.28824ZM24.784 5.87668C24.5511 5.87699 24.3233 5.80818 24.1296 5.67898C23.9358 5.54978 23.7847 5.366 23.6954 5.15089C23.6061 4.93578 23.5827 4.69901 23.6281 4.47057C23.6735 4.24214 23.7855 4.03231 23.9502 3.86763C24.1149 3.70294 24.3248 3.59082 24.5532 3.54546C24.7816 3.5001 25.0184 3.52353 25.2335 3.61279C25.4486 3.70206 25.6324 3.85315 25.7616 4.04692C25.8908 4.24069 25.9596 4.46844 25.9593 4.70134C25.9599 4.85608 25.93 5.00942 25.8712 5.15255C25.8124 5.29569 25.7259 5.4258 25.6167 5.53543C25.5075 5.64506 25.3778 5.73206 25.2348 5.79141C25.0919 5.85077 24.9387 5.88132 24.784 5.88131V5.87668ZM29.49 5.87668C29.2571 5.87699 29.0293 5.80818 28.8356 5.67898C28.6418 5.54978 28.4907 5.366 28.4014 5.15089C28.3121 4.93578 28.2887 4.69901 28.334 4.47057C28.3794 4.24214 28.4915 4.03231 28.6562 3.86763C28.8209 3.70294 29.0308 3.59082 29.2592 3.54546C29.4876 3.5001 29.7244 3.52353 29.9395 3.61279C30.1546 3.70206 30.3384 3.85315 30.4676 4.04692C30.5968 4.24069 30.6656 4.46844 30.6653 4.70134C30.6659 4.85608 30.6359 5.00942 30.5771 5.15255C30.5183 5.29569 30.4319 5.4258 30.3227 5.53543C30.2135 5.64506 30.0837 5.73206 29.9408 5.79141C29.7979 5.85077 29.6447 5.88132 29.49 5.88131V5.87668Z" fill="#1A272D"/>
<path d="M37.3721 32.9403H34.1202V39.9985H37.3721C38.0703 39.9985 38.7399 39.7211 39.2336 39.2275C39.7272 38.7338 40.0046 38.0642 40.0046 37.366V35.562C40.0018 34.8657 39.7232 34.1989 39.2298 33.7075C38.7364 33.2162 38.0685 32.9403 37.3721 32.9403Z" fill="#EB5728"/>
<path d="M26.1298 32.9403H13.3437C13.9813 34.0071 14.3179 35.2266 14.3179 36.4694C14.3179 37.7122 13.9813 38.9318 13.3437 39.9985H31.7603V32.9403H26.1298Z" fill="#EB5728"/>
</g>
<defs>
<clipPath id="clip0_521_737">
<rect width="40" height="40" fill="white"/>
</clipPath>
</defs>
</svg>
