<svg width="40" height="40" viewBox="0 0 40 40" fill="none" xmlns="http://www.w3.org/2000/svg">
<g clip-path="url(#clip0_521_647)">
<path d="M18.8234 5.23099C18.8234 3.84364 18.402 2.51311 17.6518 1.53211C16.9016 0.551107 15.8841 0 14.8232 0H4.70621V33.8459H18.8234V5.23099ZM14.197 27.69H9.41241C9.10037 27.69 8.80111 27.5279 8.58046 27.2394C8.35982 26.9508 8.23584 26.5595 8.23584 26.1515C8.23584 25.7434 8.35982 25.3521 8.58046 25.0636C8.80111 24.775 9.10037 24.6129 9.41241 24.6129H14.197C14.5091 24.6129 14.8083 24.775 15.029 25.0636C15.2496 25.3521 15.3736 25.7434 15.3736 26.1515C15.3736 26.5595 15.2496 26.9508 15.029 27.2394C14.8083 27.5279 14.5091 27.69 14.197 27.69ZM14.197 21.5359H9.41241C9.10037 21.5359 8.80111 21.3738 8.58046 21.0852C8.35982 20.7967 8.23584 20.4054 8.23584 19.9973C8.23584 19.5893 8.35982 19.198 8.58046 18.9094C8.80111 18.6209 9.10037 18.4588 9.41241 18.4588H14.197C14.5091 18.4588 14.8083 18.6209 15.029 18.9094C15.2496 19.198 15.3736 19.5893 15.3736 19.9973C15.3736 20.4054 15.2496 20.7967 15.029 21.0852C14.8083 21.3738 14.5091 21.5359 14.197 21.5359ZM14.197 15.3818H9.41241C9.10037 15.3818 8.80111 15.2197 8.58046 14.9311C8.35982 14.6426 8.23584 14.2513 8.23584 13.8432C8.23584 13.4352 8.35982 13.0439 8.58046 12.7553C8.80111 12.4668 9.10037 12.3047 9.41241 12.3047H14.197C14.5091 12.3047 14.8083 12.4668 15.029 12.7553C15.2496 13.0439 15.3736 13.4352 15.3736 13.8432C15.3736 14.2513 15.2496 14.6426 15.029 14.9311C14.8083 15.2197 14.5091 15.3818 14.197 15.3818Z" fill="#1A272D"/>
<path d="M39.6808 4.61377H37.966C37.8816 4.61377 37.8007 4.65751 37.7408 4.7354C37.681 4.81328 37.6472 4.91897 37.6469 5.02935V36.9194H2.35037V5.03112C2.35037 4.9764 2.34213 4.92221 2.32607 4.87168C2.31002 4.82114 2.28649 4.77524 2.25684 4.73663C2.22718 4.69801 2.19198 4.66745 2.15326 4.64667C2.11455 4.62589 2.07308 4.61531 2.03123 4.61554H0.316455C0.232043 4.61554 0.151064 4.65926 0.0912489 4.73714C0.0314343 4.81503 -0.00235839 4.92074 -0.00271606 5.03112V39.9982H40V5.03112C40.0002 4.97625 39.992 4.92188 39.9761 4.87114C39.9601 4.8204 39.9366 4.77428 39.9069 4.73548C39.8773 4.69668 39.842 4.66597 39.8032 4.64507C39.7644 4.62418 39.7228 4.61354 39.6808 4.61377Z" fill="#EB5728"/>
<path d="M35.2938 0H25.1768C24.1159 0 23.0984 0.551107 22.3482 1.53211C21.598 2.51311 21.1766 3.84364 21.1766 5.23099V33.8459H35.2938V0ZM30.5105 27.6918H25.8827C25.5707 27.6918 25.2714 27.5297 25.0508 27.2411C24.8302 26.9526 24.7062 26.5613 24.7062 26.1532C24.7062 25.7452 24.8302 25.3539 25.0508 25.0653C25.2714 24.7768 25.5707 24.6147 25.8827 24.6147H30.5105C30.8225 24.6147 31.1218 24.7768 31.3425 25.0653C31.5631 25.3539 31.6871 25.7452 31.6871 26.1532C31.6871 26.5613 31.5631 26.9526 31.3425 27.2411C31.1218 27.5297 30.8225 27.6918 30.5105 27.6918ZM30.5105 21.5376H25.8827C25.5707 21.5376 25.2714 21.3755 25.0508 21.087C24.8302 20.7985 24.7062 20.4072 24.7062 19.9991C24.7062 19.5911 24.8302 19.1997 25.0508 18.9112C25.2714 18.6227 25.5707 18.4606 25.8827 18.4606H30.5105C30.8225 18.4606 31.1218 18.6227 31.3425 18.9112C31.5631 19.1997 31.6871 19.5911 31.6871 19.9991C31.6871 20.4072 31.5631 20.7985 31.3425 21.087C31.1218 21.3755 30.8225 21.5376 30.5105 21.5376ZM30.5105 15.3835H25.8827C25.5707 15.3835 25.2714 15.2214 25.0508 14.9329C24.8302 14.6444 24.7062 14.253 24.7062 13.845C24.7062 13.4369 24.8302 13.0456 25.0508 12.7571C25.2714 12.4686 25.5707 12.3065 25.8827 12.3065H30.5105C30.8225 12.3065 31.1218 12.4686 31.3425 12.7571C31.5631 13.0456 31.6871 13.4369 31.6871 13.845C31.6871 14.253 31.5631 14.6444 31.3425 14.9329C31.1218 15.2214 30.8225 15.3835 30.5105 15.3835Z" fill="#1A272D"/>
</g>
<defs>
<clipPath id="clip0_521_647">
<rect width="40" height="40" fill="white"/>
</clipPath>
</defs>
</svg>
