<svg width="40" height="40" viewBox="0 0 40 40" fill="none" xmlns="http://www.w3.org/2000/svg">
<g clip-path="url(#clip0_521_769)">
<path d="M37.4064 8.27718C37.8668 7.83074 38.2346 7.29542 38.4884 6.70268C38.7421 6.10993 38.8765 5.47171 38.8838 4.8255C38.891 4.17929 38.771 3.53812 38.5306 2.93966C38.2903 2.3412 37.9346 1.79751 37.4843 1.34054C37.034 0.883568 36.4983 0.52253 35.9086 0.278626C35.3189 0.0347215 34.6871 -0.0871286 34.0504 -0.0797631C33.4137 -0.0723975 32.7848 0.0640355 32.2007 0.321517C31.6167 0.578999 31.0892 0.952336 30.6493 1.4196L29.8056 2.27773L36.5608 9.13344L37.4064 8.27718Z" fill="#1A272D"/>
<path d="M28.96 11.706L27.2708 9.99159L24.7378 7.41907L3.66711 28.8033L8.10071 29.4469C8.32517 29.4363 8.54936 29.4733 8.75892 29.5555C8.96848 29.6378 9.15884 29.7636 9.31781 29.9247C9.47679 30.0859 9.60086 30.2789 9.68217 30.4915C9.76347 30.7041 9.80022 30.9316 9.79001 31.1594L10.4242 35.6608L31.4949 14.2766L28.96 11.706Z" fill="#1A272D"/>
<path d="M1.55691 30.9468L1.20215 31.305L0 39.3826L7.95919 38.1625L8.31396 37.8025L7.46841 31.803L1.55691 30.9468Z" fill="#1A272D"/>
<path d="M28.1019 3.9796L26.4135 5.69312L33.1684 12.5485L34.8568 10.835L28.1019 3.9796Z" fill="#1A272D"/>
<path d="M36.4156 32.7265H25.7359C25.4451 32.7335 25.161 32.6366 24.9333 32.4529C24.7055 32.2692 24.5486 32.0101 24.4897 31.721C24.4605 31.5469 24.4692 31.3685 24.5149 31.1981C24.5607 31.0278 24.6425 30.8696 24.7547 30.7347C24.8668 30.5997 25.0067 30.4912 25.1644 30.4166C25.3221 30.3421 25.4939 30.3034 25.6679 30.3032H31.6382C31.9551 30.3032 32.259 30.1754 32.4831 29.948C32.7071 29.7206 32.833 29.4122 32.833 29.0906C32.833 28.769 32.7071 28.4606 32.4831 28.2332C32.259 28.0058 31.9551 27.8781 31.6382 27.8781H25.7911C23.9713 27.8781 22.3464 29.2044 22.1148 31.0363C22.0484 31.5498 22.0906 32.0717 22.2388 32.5672C22.3869 33.0628 22.6374 33.5206 22.9737 33.91C23.31 34.2995 23.7242 34.6117 24.1888 34.8258C24.6534 35.0399 25.1577 35.151 25.6679 35.1516H36.3494C36.6404 35.1444 36.9246 35.2415 37.1521 35.4257C37.3797 35.6099 37.536 35.8695 37.5938 36.159C37.623 36.333 37.6144 36.5113 37.5686 36.6816C37.5228 36.8518 37.441 37.0099 37.3288 37.1447C37.2166 37.2795 37.0767 37.3879 36.919 37.4622C36.7613 37.5365 36.5895 37.575 36.4156 37.5749H16.1095C15.7927 37.5749 15.4888 37.7027 15.2647 37.9301C15.0406 38.1575 14.9147 38.4659 14.9147 38.7875C14.9147 39.1091 15.0406 39.4175 15.2647 39.6449C15.4888 39.8723 15.7927 40.0001 16.1095 40.0001H36.2869C38.1085 40.0001 39.7334 38.6756 39.9632 36.8418C40.0296 36.3288 39.9874 35.8074 39.8396 35.3122C39.6918 34.8171 39.4418 34.3596 39.1061 33.9702C38.7704 33.5808 38.3568 33.2685 37.8929 33.054C37.429 32.8396 36.9254 32.7279 36.4156 32.7265Z" fill="#EB5728"/>
</g>
<defs>
<clipPath id="clip0_521_769">
<rect width="40" height="40" fill="white"/>
</clipPath>
</defs>
</svg>
