<svg width="32" height="32" viewBox="0 0 32 32" fill="none" xmlns="http://www.w3.org/2000/svg">
<g clip-path="url(#clip0_521_159)">
<path d="M15.0586 0H0.92812C0.681611 0 0.445205 0.0979304 0.270897 0.272238C0.0965895 0.446546 -0.00134087 0.682952 -0.00134087 0.929461V4.70705H12.2344L15.0586 0Z" fill="#EB5728"/>
<path d="M26.1496 24.4697H19.9673C19.8551 24.4697 19.7642 24.5607 19.7642 24.6729V26.1494C19.7642 26.2616 19.8551 26.3525 19.9673 26.3525H26.1496C26.2618 26.3525 26.3527 26.2616 26.3527 26.1494V24.6729C26.3527 24.5607 26.2618 24.4697 26.1496 24.4697Z" fill="#EB5728"/>
<path d="M11.9077 13.1758H5.9751C5.79397 13.1758 5.64714 13.3226 5.64714 13.5037V18.4949C5.64714 18.6761 5.79397 18.8229 5.9751 18.8229H11.9077C12.0888 18.8229 12.2357 18.6761 12.2357 18.4949V13.5037C12.2357 13.3226 12.0888 13.1758 11.9077 13.1758Z" fill="#EB5728"/>
<path d="M31.0718 0H17.2547L13.3018 6.58856H-8.7738e-05V31.3002C-8.79037e-05 31.3923 0.0180543 31.4834 0.0533031 31.5683C0.0885519 31.6533 0.14022 31.7305 0.205339 31.7955C0.270457 31.8605 0.347758 31.912 0.432809 31.9471C0.51786 31.9822 0.608991 32.0002 0.700995 32H31.3002C31.4857 32 31.6637 31.9263 31.795 31.7951C31.9262 31.6638 31.9999 31.4858 31.9999 31.3002V0.928132C31.9996 0.682083 31.9017 0.446221 31.7277 0.272238C31.5537 0.0982555 31.3178 0.000351247 31.0718 0ZM14.1198 27.2943C14.1198 27.5437 14.0208 27.783 13.8445 27.9595C13.6682 28.136 13.4291 28.2353 13.1797 28.2357H4.70832C4.45875 28.2353 4.2195 28.136 4.04303 27.9596C3.86655 27.7831 3.76725 27.5439 3.7669 27.2943C3.7669 27.0446 3.86609 26.8051 4.04264 26.6286C4.21919 26.4521 4.45864 26.3529 4.70832 26.3529H13.1797C13.3032 26.3529 13.4256 26.3772 13.5397 26.4246C13.6539 26.4719 13.7576 26.5412 13.8449 26.6287C13.9322 26.7161 14.0014 26.8199 14.0486 26.9341C14.0957 27.0483 14.1199 27.1707 14.1198 27.2943ZM13.1797 24.47H4.70832C4.58181 24.4748 4.45563 24.454 4.33734 24.4088C4.21906 24.3637 4.11107 24.2952 4.01988 24.2073C3.92869 24.1195 3.85619 24.0142 3.80664 23.8977C3.7571 23.7812 3.73153 23.6559 3.73153 23.5293C3.73153 23.4027 3.7571 23.2774 3.80664 23.1609C3.85619 23.0444 3.92869 22.9391 4.01988 22.8512C4.11107 22.7634 4.21906 22.6949 4.33734 22.6497C4.45563 22.6046 4.58181 22.5838 4.70832 22.5886H13.1797C13.4231 22.5977 13.6534 22.7008 13.8224 22.8762C13.9914 23.0517 14.0858 23.2857 14.0858 23.5293C14.0858 23.7729 13.9914 24.0069 13.8224 24.1823C13.6534 24.3578 13.4231 24.4609 13.1797 24.47ZM14.1198 20.3817C14.1199 20.4247 14.1116 20.4674 14.0953 20.5072C14.0789 20.5469 14.0549 20.5831 14.0245 20.6136C13.9942 20.644 13.9581 20.6682 13.9184 20.6847C13.8787 20.7012 13.8361 20.7097 13.7931 20.7097H4.10018C4.05633 20.7109 4.01268 20.7034 3.97181 20.6875C3.93094 20.6715 3.89368 20.6476 3.86224 20.617C3.83079 20.5864 3.80581 20.5498 3.78875 20.5094C3.77169 20.469 3.76289 20.4256 3.76291 20.3817V11.6183C3.76291 11.5313 3.79746 11.4479 3.85896 11.3863C3.92047 11.3248 4.00389 11.2903 4.09087 11.2903H13.7838C13.8276 11.289 13.8712 11.2966 13.912 11.3126C13.9528 11.3285 13.99 11.3525 14.0213 11.3831C14.0526 11.4137 14.0775 11.4503 14.0944 11.4907C14.1114 11.5311 14.12 11.5745 14.1198 11.6183V20.3817ZM22.5911 5.65113C22.591 5.52745 22.6152 5.40495 22.6624 5.29065C22.7097 5.17635 22.779 5.07251 22.8665 4.98506C22.9539 4.8976 23.0578 4.82827 23.1721 4.78102C23.2864 4.73378 23.4088 4.70953 23.5325 4.70971C23.7813 4.709 24.0202 4.80678 24.1971 4.98168C24.374 5.15659 24.4745 5.3944 24.4766 5.64315C24.4763 5.89272 24.377 6.13198 24.2005 6.30845C24.024 6.48492 23.7848 6.58423 23.5352 6.58458C23.2855 6.58458 23.0461 6.48539 22.8695 6.30884C22.693 6.13229 22.5938 5.89283 22.5938 5.64315L22.5911 5.65113ZM18.8268 5.65113C18.8266 5.52756 18.8508 5.40515 18.898 5.29094C18.9452 5.17673 19.0144 5.07295 19.1017 4.98551C19.189 4.89807 19.2927 4.82874 19.4068 4.78141C19.521 4.73409 19.6433 4.70971 19.7669 4.70971C19.8906 4.70953 20.0131 4.73378 20.1274 4.78102C20.2417 4.82827 20.3455 4.8976 20.433 4.98506C20.5204 5.07251 20.5898 5.17635 20.637 5.29065C20.6843 5.40495 20.7085 5.52745 20.7083 5.65113C20.7083 5.77476 20.684 5.89716 20.6366 6.01138C20.5893 6.1256 20.52 6.22939 20.4326 6.31681C20.3452 6.40423 20.2414 6.47357 20.1271 6.52088C20.0129 6.56819 19.8905 6.59252 19.7669 6.59252C19.5175 6.59217 19.2784 6.49284 19.1021 6.31633C18.9258 6.13981 18.8268 5.90058 18.8268 5.65113ZM28.2383 28.0365C28.2379 28.0903 28.2164 28.1418 28.1784 28.1798C28.1403 28.2178 28.0889 28.2393 28.0351 28.2397H18.0885C18.0347 28.2397 17.983 28.2183 17.9449 28.1802C17.9068 28.1421 17.8854 28.0904 17.8854 28.0365V22.7957C17.8852 22.7689 17.8904 22.7425 17.9005 22.7177C17.9107 22.693 17.9256 22.6705 17.9445 22.6516C17.9634 22.6327 17.9859 22.6178 18.0106 22.6076C18.0353 22.5975 18.0618 22.5923 18.0885 22.5925H28.0351C28.089 22.5925 28.1407 22.6139 28.1788 22.652C28.2169 22.6901 28.2383 22.7418 28.2383 22.7957V28.0365ZM28.2383 19.7683C28.2385 19.892 28.2142 20.0145 28.167 20.1288C28.1197 20.2431 28.0504 20.3469 27.9629 20.4344C27.8755 20.5218 27.7716 20.5912 27.6573 20.6384C27.543 20.6857 27.4205 20.7099 27.2969 20.7097H18.8268C18.7031 20.7099 18.5806 20.6857 18.4663 20.6384C18.352 20.5912 18.2482 20.5218 18.1607 20.4344C18.0733 20.3469 18.004 20.2431 17.9567 20.1288C17.9095 20.0145 17.8852 19.892 17.8854 19.7683C17.8854 19.6447 17.9098 19.5224 17.9571 19.4082C18.0044 19.2941 18.0738 19.1904 18.1612 19.1031C18.2487 19.0158 18.3524 18.9466 18.4667 18.8994C18.5809 18.8522 18.7032 18.828 18.8268 18.8282H27.2969C27.4204 18.828 27.5428 18.8522 27.657 18.8994C27.7712 18.9466 27.875 19.0158 27.9624 19.1031C28.0499 19.1904 28.1192 19.2941 28.1666 19.4082C28.2139 19.5224 28.2383 19.6447 28.2383 19.7683ZM27.2969 16.9454H18.8268C18.7032 16.9454 18.5808 16.921 18.4666 16.8737C18.3523 16.8264 18.2485 16.7571 18.1611 16.6697C18.0737 16.5823 18.0044 16.4785 17.9571 16.3642C17.9097 16.25 17.8854 16.1276 17.8854 16.004C17.8854 15.8804 17.9097 15.758 17.9571 15.6437C18.0044 15.5295 18.0737 15.4257 18.1611 15.3383C18.2485 15.2509 18.3523 15.1816 18.4666 15.1342C18.5808 15.0869 18.7032 15.0626 18.8268 15.0626H27.2969C27.5465 15.0626 27.786 15.1618 27.9625 15.3383C28.1391 15.5149 28.2383 15.7543 28.2383 16.004C28.2383 16.2537 28.1391 16.4931 27.9625 16.6697C27.786 16.8462 27.5465 16.9454 27.2969 16.9454ZM27.2969 13.1798H18.8268C18.7003 13.1845 18.5741 13.1637 18.4558 13.1185C18.3375 13.0734 18.2296 13.0049 18.1384 12.9171C18.0472 12.8293 17.9747 12.7239 17.9251 12.6074C17.8756 12.4909 17.85 12.3656 17.85 12.239C17.85 12.1124 17.8756 11.9871 17.9251 11.8706C17.9747 11.7541 18.0472 11.6488 18.1384 11.5609C18.2296 11.4731 18.3375 11.4046 18.4558 11.3594C18.5741 11.3143 18.7003 11.2935 18.8268 11.2983H27.2969C27.4234 11.2935 27.5495 11.3143 27.6678 11.3594C27.7861 11.4046 27.8941 11.4731 27.9853 11.5609C28.0764 11.6488 28.149 11.7541 28.1985 11.8706C28.2481 11.9871 28.2736 12.1124 28.2736 12.239C28.2736 12.3656 28.2481 12.4909 28.1985 12.6074C28.149 12.7239 28.0764 12.8293 27.9853 12.9171C27.8941 13.0049 27.7861 13.0734 27.6678 13.1185C27.5495 13.1637 27.4234 13.1845 27.2969 13.1798ZM28.2383 5.65113C28.2383 5.90081 28.1391 6.14026 27.9625 6.31681C27.786 6.49336 27.5465 6.59252 27.2969 6.59252C27.0472 6.59252 26.8077 6.49336 26.6312 6.31681C26.4546 6.14026 26.3554 5.90081 26.3554 5.65113C26.3553 5.52745 26.3795 5.40495 26.4267 5.29065C26.474 5.17635 26.5433 5.07251 26.6308 4.98506C26.7182 4.8976 26.8221 4.82827 26.9364 4.78102C27.0507 4.73378 27.1732 4.70953 27.2969 4.70971C27.4205 4.70953 27.543 4.73378 27.6573 4.78102C27.7716 4.82827 27.8755 4.8976 27.9629 4.98506C28.0504 5.07251 28.1197 5.17635 28.167 5.29065C28.2142 5.40495 28.2385 5.52745 28.2383 5.65113Z" fill="#EB5728"/>
</g>
<defs>
<clipPath id="clip0_521_159">
<rect width="32" height="32" fill="white"/>
</clipPath>
</defs>
</svg>
