<svg width="40" height="40" viewBox="0 0 40 40" fill="none" xmlns="http://www.w3.org/2000/svg">
<g clip-path="url(#clip0_521_660)">
<path d="M2.85644 3.53015H0V40H35.7134V37.646H2.85644V3.53015Z" fill="#EB5728"/>
<path d="M5.71286 0V35.2937H40V0H5.71286ZM14.294 29.4111H12.8638C12.485 29.4111 12.1217 29.2872 11.8539 29.0666C11.586 28.846 11.4355 28.5469 11.4355 28.2349C11.4355 27.923 11.586 27.6238 11.8539 27.4032C12.1217 27.1826 12.485 27.0587 12.8638 27.0587H14.294C14.6727 27.0587 15.036 27.1826 15.3039 27.4032C15.5717 27.6238 15.7222 27.923 15.7222 28.2349C15.7222 28.5469 15.5717 28.846 15.3039 29.0666C15.036 29.2872 14.6727 29.4111 14.294 29.4111ZM14.294 24.7064H12.8638C12.4939 24.6951 12.1437 24.5661 11.8869 24.3466C11.63 24.1271 11.4865 23.8342 11.4865 23.5294C11.4865 23.2245 11.63 22.9316 11.8869 22.7121C12.1437 22.4926 12.4939 22.3636 12.8638 22.3524H14.294C14.6638 22.3636 15.014 22.4926 15.2709 22.7121C15.5277 22.9316 15.6713 23.2245 15.6713 23.5294C15.6713 23.8342 15.5277 24.1271 15.2709 24.3466C15.014 24.5661 14.6638 24.6951 14.294 24.7064ZM15.7222 18.8238C15.7222 19.1357 15.5717 19.4349 15.3039 19.6555C15.036 19.8761 14.6727 20 14.294 20H12.8638C12.485 20 12.1217 19.8761 11.8539 19.6555C11.586 19.4349 11.4355 19.1357 11.4355 18.8238C11.4355 18.5119 11.586 18.2127 11.8539 17.9921C12.1217 17.7715 12.485 17.6476 12.8638 17.6476H14.294C14.6727 17.6476 15.036 17.7715 15.3039 17.9921C15.5717 18.2127 15.7222 18.5119 15.7222 18.8238ZM18.6569 6.08395C19.497 5.39168 20.5783 4.93242 21.7503 4.77011C22.9223 4.60781 24.1266 4.75055 25.1954 5.17844C25.3966 5.26278 25.5707 5.38527 25.7032 5.53581C25.8358 5.68636 25.923 5.86068 25.9578 6.04441C25.9925 6.22815 25.9738 6.41604 25.9032 6.59266C25.8325 6.76928 25.712 6.92957 25.5515 7.06033C25.3345 7.23457 25.0567 7.34858 24.7571 7.38643C24.4576 7.42427 24.1511 7.38406 23.8806 7.27141C23.4451 7.10513 22.9657 7.03186 22.4867 7.05838C22.0077 7.08491 21.5445 7.21037 21.1399 7.42317C20.7353 7.63597 20.4023 7.92927 20.1717 8.276C19.941 8.62273 19.8201 9.01171 19.8201 9.40707C19.8201 9.80243 19.941 10.1914 20.1717 10.5381C20.4023 10.8849 20.7353 11.1782 21.1399 11.391C21.5445 11.6038 22.0077 11.7292 22.4867 11.7557C22.9657 11.7823 23.4451 11.709 23.8806 11.5427C24.1498 11.4339 24.4532 11.3961 24.7494 11.4344C25.0456 11.4728 25.3202 11.5854 25.5358 11.757C25.6964 11.8878 25.8169 12.0481 25.8875 12.2247C25.9581 12.4013 25.9769 12.5892 25.9421 12.773C25.9073 12.9567 25.8201 13.131 25.6876 13.2816C25.555 13.4321 25.381 13.5546 25.1797 13.6389C23.9641 14.1256 22.5785 14.2416 21.2688 13.9665C19.9591 13.6914 18.8102 13.0429 18.0262 12.1362C17.2422 11.2295 16.8737 10.1233 16.9863 9.01409C17.0989 7.90486 17.6853 6.86439 18.6412 6.07749L18.6569 6.08395ZM32.8706 29.4111H20.0127C19.6339 29.4111 19.2706 29.2872 19.0028 29.0666C18.735 28.846 18.5845 28.5469 18.5845 28.2349C18.5845 27.923 18.735 27.6238 19.0028 27.4032C19.2706 27.1826 19.6339 27.0587 20.0127 27.0587H32.8706C33.2494 27.0587 33.6127 27.1826 33.8805 27.4032C34.1484 27.6238 34.2988 27.923 34.2988 28.2349C34.2988 28.5469 34.1484 28.846 33.8805 29.0666C33.6127 29.2872 33.2494 29.4111 32.8706 29.4111ZM32.8706 24.7064H20.0127C19.6428 24.6951 19.2926 24.5661 19.0358 24.3466C18.7789 24.1271 18.6354 23.8342 18.6354 23.5294C18.6354 23.2245 18.7789 22.9316 19.0358 22.7121C19.2926 22.4926 19.6428 22.3636 20.0127 22.3524H32.8706C33.2405 22.3636 33.5907 22.4926 33.8476 22.7121C34.1044 22.9316 34.2479 23.2245 34.2479 23.5294C34.2479 23.8342 34.1044 24.1271 33.8476 24.3466C33.5907 24.5661 33.2405 24.6951 32.8706 24.7064ZM34.2988 18.8238C34.2988 19.1357 34.1484 19.4349 33.8805 19.6555C33.6127 19.8761 33.2494 20 32.8706 20H20.0127C19.6339 20 19.2706 19.8761 19.0028 19.6555C18.735 19.4349 18.5845 19.1357 18.5845 18.8238C18.5845 18.5119 18.735 18.2127 19.0028 17.9921C19.2706 17.7715 19.6339 17.6476 20.0127 17.6476H32.8706C33.2494 17.6476 33.6127 17.7715 33.8805 17.9921C34.1484 18.2127 34.2988 18.5119 34.2988 18.8238Z" fill="#1A272D"/>
</g>
<defs>
<clipPath id="clip0_521_660">
<rect width="40" height="40" fill="white"/>
</clipPath>
</defs>
</svg>
