<svg width="81" height="82" viewBox="0 0 81 82" fill="none" xmlns="http://www.w3.org/2000/svg">
<path fill-rule="evenodd" clip-rule="evenodd" d="M60.2663 40.8182V42.7173V51.4225V56.1606L45.4847 47.1356L38.7023 50.0501L22.4844 66.9529L35.2712 71.4655L67.3678 59.5263L79.4764 32.583L60.2663 40.8182Z" fill="#3715D8"/>
<path fill-rule="evenodd" clip-rule="evenodd" d="M28.9275 54.2438L18.1953 65.431L22.4843 66.9538L38.702 50.0508L28.9275 54.2438Z" fill="#3715D8"/>
<path opacity="0.39" fill-rule="evenodd" clip-rule="evenodd" d="M25.9867 22.1865L19.5036 28.3536L17.6484 30.1399L25.9867 22.1865Z" fill="#070707"/>
<path fill-rule="evenodd" clip-rule="evenodd" d="M45.4844 47.1369L60.266 56.1618V51.4238L51.9874 44.373L45.4844 47.1369Z" fill="#3715D8"/>
<path fill-rule="evenodd" clip-rule="evenodd" d="M40.0156 8.79883L43.0877 11.7131L57.0315 24.9497L69.7385 11.7131L72.5312 8.79883H40.0156Z" fill="#6CC6B0"/>
<path fill-rule="evenodd" clip-rule="evenodd" d="M25.9903 22.1855L17.652 30.1389L2.53125 44.5787V81.7501L5.48359 78.6667L18.1906 65.4302L28.9227 54.243L39.3356 43.3942L44.5023 37.9982L29.1622 24.8931L25.9903 22.1855Z" fill="#6CC6B0"/>
<g opacity="0.39">
<path opacity="0.4" fill-rule="evenodd" clip-rule="evenodd" d="M18.1874 65.431L22.4763 66.9538L38.6941 50.0508L28.9196 54.2438L18.1874 65.431Z" fill="#070707"/>
<path opacity="0.4" fill-rule="evenodd" clip-rule="evenodd" d="M52.0186 44.3535L45.5156 47.1173L60.2972 56.1423V51.4042L52.0186 44.3535Z" fill="#070707"/>
<path opacity="0.4" fill-rule="evenodd" clip-rule="evenodd" d="M25.9867 22.1865L17.6484 30.1399L21.3189 32.3772L39.3322 43.3952L44.4987 37.9991L29.1586 24.894L25.9867 22.1865Z" fill="#070707"/>
</g>
<path fill-rule="evenodd" clip-rule="evenodd" d="M60.044 27.8081L57.0319 24.9502L43.0881 11.7136L40.016 8.79931L30.7601 0H0L25.9925 22.1864L29.1642 24.8937L44.5045 37.9988L47.6762 40.6873L51.9849 44.3726L60.2636 51.4233V42.7181V40.819V27.9961L60.044 27.8081Z" fill="#EB5728"/>
</svg>
