<svg width="40" height="40" viewBox="0 0 40 40" fill="none" xmlns="http://www.w3.org/2000/svg">
<path d="M24.0026 4V4.21667C24.0026 6.83333 25.6859 9.06667 28.1026 10.1C31.8859 11.7 34.5526 15.4667 34.5526 19.8333H39.8359C39.8359 11.1 32.7359 4 24.0026 4Z" fill="#6DC6B0"/>
<path d="M2.0026 4V4.21667C2.0026 6.83333 3.68594 9.06667 6.1026 10.1C9.88594 11.7 12.5526 15.4667 12.5526 19.8333H17.8359C17.8359 11.1 10.7359 4 2.0026 4Z" fill="#6DC6B0"/>
<path d="M24.0026 24.832V36.032H34.8359C37.5859 36.032 39.8359 33.7987 39.8359 31.032V19.832H29.0026C26.2359 19.832 24.0026 22.0654 24.0026 24.832Z" fill="#6DC6B0"/>
<path d="M2.0026 24.832V36.032H12.8359C15.5859 36.032 17.8359 33.7987 17.8359 31.032V19.832H7.0026C4.23594 19.832 2.0026 22.0654 2.0026 24.832Z" fill="#6DC6B0"/>
</svg>
