<svg width="40" height="40" viewBox="0 0 40 40" fill="none" xmlns="http://www.w3.org/2000/svg">
<path d="M16.8333 3V3.21667C16.8333 5.83333 15.15 8.06667 12.7333 9.1C8.95 10.7 6.28333 14.4667 6.28333 18.8333H1C1 10.1 8.1 3 16.8333 3Z" fill="#6DC6B0"/>
<path d="M38.8333 3V3.21667C38.8333 5.83333 37.15 8.06667 34.7333 9.1C30.95 10.7 28.2833 14.4667 28.2833 18.8333H23C23 10.1 30.1 3 38.8333 3Z" fill="#6DC6B0"/>
<path d="M16.8333 23.832V35.032H6C3.25 35.032 1 32.7987 1 30.032V18.832H11.8333C14.6 18.832 16.8333 21.0654 16.8333 23.832Z" fill="#6DC6B0"/>
<path d="M38.8333 23.832V35.032H28C25.25 35.032 23 32.7987 23 30.032V18.832H33.8333C36.6 18.832 38.8333 21.0654 38.8333 23.832Z" fill="#6DC6B0"/>
</svg>
