<svg width="301" height="250" viewBox="0 0 301 250" fill="none" xmlns="http://www.w3.org/2000/svg">
<path d="M301 26.0449C301 3.95354 283.091 -13.9551 261 -13.9551H191.889C189.127 -13.9551 186.889 -11.7165 186.889 -8.95508V42.51C186.889 64.6014 204.797 82.51 226.889 82.51H301V26.0449Z" fill="#F7673A" fill-opacity="0.7"/>
<path d="M69.4688 211.916C69.4688 189.825 51.5601 171.916 29.4687 171.916H-21.9964C-24.7578 171.916 -26.9964 174.155 -26.9964 176.916V209.559C-26.9964 231.65 -9.08775 249.559 13.0036 249.559H69.4688V211.916Z" fill="#F7673A" fill-opacity="0.7"/>
<path fill-rule="evenodd" clip-rule="evenodd" d="M131.633 -14C153.724 -14 171.633 3.90857 171.633 26V148.138H172.328C168.188 210.09 114.101 224.298 87.5748 223.658V148.733H17.0363C-5.05508 148.733 -22.9637 130.824 -22.9637 108.733V-9C-22.9637 -11.7614 -20.7251 -14 -17.9637 -14H131.633Z" fill="#F7673A" fill-opacity="0.7"/>
</svg>
