<svg width="252" height="209" viewBox="0 0 252 209" fill="none" xmlns="http://www.w3.org/2000/svg">
<path d="M252 9.03809C252 -4.76903 240.807 -15.9619 227 -15.9619H160C157.239 -15.9619 155 -13.7233 155 -10.9619V41.0381C155 54.8452 166.193 66.0381 180 66.0381H252V9.03809Z" fill="#13C296" fill-opacity="0.7"/>
<path d="M59 167.038C59 153.231 47.8071 142.038 34 142.038H-18C-20.7614 142.038 -23 144.277 -23 147.038V183.038C-23 196.845 -11.8071 208.038 2 208.038H59V167.038Z" fill="#13C296" fill-opacity="0.7"/>
<path fill-rule="evenodd" clip-rule="evenodd" d="M105.844 -16C127.935 -16 145.844 1.90863 145.844 24V121.825H146.438C142.918 174.487 96.9414 186.565 74.3931 186.021V122.331H20.4273C-1.66405 122.331 -19.5727 104.422 -19.5727 82.3307V-11C-19.5727 -13.7614 -17.3341 -16 -14.5727 -16H105.844Z" fill="#13C296" fill-opacity="0.7"/>
</svg>
