<svg width="28" height="28" viewBox="0 0 28 28" fill="none" xmlns="http://www.w3.org/2000/svg">
<path d="M22.75 4H6.25C5.00781 4 4 5.00781 4 6.25V22.75C4 23.9922 5.00781 25 6.25 25H22.75C23.9922 25 25 23.9922 25 22.75V6.25C25 5.00781 23.9922 4 22.75 4ZM20.4578 11.4438C20.4672 11.575 20.4672 11.7109 20.4672 11.8422C20.4672 15.9062 17.3734 20.5891 11.7203 20.5891C9.97656 20.5891 8.35938 20.0828 7 19.2109C7.24844 19.2391 7.4875 19.2484 7.74063 19.2484C9.17969 19.2484 10.5016 18.7609 11.5562 17.9359C10.2062 17.9078 9.07188 17.0219 8.68281 15.8031C9.15625 15.8734 9.58281 15.8734 10.0703 15.7469C8.66406 15.4609 7.60938 14.2234 7.60938 12.7281V12.6906C8.01719 12.9203 8.49531 13.0609 8.99687 13.0797C8.5752 12.7992 8.22952 12.4187 7.99069 11.9721C7.75186 11.5255 7.6273 11.0268 7.62813 10.5203C7.62812 9.94844 7.77813 9.42344 8.04531 8.96875C9.55938 10.8344 11.8328 12.0531 14.3828 12.1844C13.9469 10.0984 15.5078 8.40625 17.3828 8.40625C18.2688 8.40625 19.0656 8.77656 19.6281 9.37656C20.3219 9.24531 20.9875 8.9875 21.5781 8.63594C21.3484 9.34844 20.8656 9.94844 20.2281 10.3281C20.8469 10.2625 21.4469 10.0891 22 9.85C21.5828 10.4641 21.0578 11.0078 20.4578 11.4438Z" fill="#EB5728"/>
</svg>
