<svg width="28" height="28" viewBox="0 0 28 28" fill="none" xmlns="http://www.w3.org/2000/svg">
<path d="M24.16 4H4.84C4.37537 4 4 4.37537 4 4.84V24.16C4 24.6246 4.37537 25 4.84 25H24.16C24.6246 25 25 24.6246 25 24.16V4.84C25 4.37537 24.6246 4 24.16 4ZM21.7345 10.1294H20.0571C18.742 10.1294 18.4874 10.7541 18.4874 11.6729V13.6967H21.6269L21.2174 16.8651H18.4874V25H15.214V16.8678H12.4761V13.6967H15.214V11.3605C15.214 8.64887 16.8704 7.171 19.2906 7.171C20.4509 7.171 21.4457 7.25763 21.7371 7.297V10.1294H21.7345Z" fill="#EB5728"/>
</svg>
