<svg width="28" height="28" viewBox="0 0 28 28" fill="none" xmlns="http://www.w3.org/2000/svg">
<path d="M20.5625 3.5C21.6471 3.5 22.5745 3.88509 23.3447 4.65527C24.1149 5.42546 24.5 6.35286 24.5 7.4375V20.5625C24.5 21.6471 24.1149 22.5745 23.3447 23.3447C22.5745 24.1149 21.6471 24.5 20.5625 24.5H10.6504C11.4251 23.388 11.9173 22.431 12.127 21.6289C12.209 21.319 12.4505 20.3665 12.8516 18.7715C13.043 19.127 13.3779 19.4323 13.8564 19.6875C14.335 19.9427 14.8477 20.0703 15.3945 20.0703C17.0443 20.0703 18.391 19.3981 19.4346 18.0537C20.4782 16.7093 21 15.0072 21 12.9473C21 12.1816 20.8405 11.4411 20.5215 10.7256C20.2025 10.0101 19.7627 9.37663 19.2021 8.8252C18.6416 8.27376 17.9466 7.83171 17.1172 7.49902C16.2878 7.16634 15.39 7 14.4238 7C13.4759 7 12.5895 7.12988 11.7646 7.38965C10.9398 7.64941 10.2425 7.99805 9.67285 8.43555C9.10319 8.87305 8.61328 9.37207 8.20312 9.93262C7.79297 10.4932 7.48991 11.0765 7.29395 11.6826C7.09798 12.2887 7 12.8926 7 13.4941C7 14.4238 7.18001 15.2441 7.54004 15.9551C7.90006 16.666 8.43099 17.1673 9.13281 17.459C9.2513 17.5046 9.3584 17.5046 9.4541 17.459C9.5498 17.4134 9.61589 17.3268 9.65234 17.1992C9.74349 16.7982 9.81185 16.5202 9.85742 16.3652C9.91211 16.1556 9.86198 15.9642 9.70703 15.791C9.2513 15.2259 9.02344 14.5423 9.02344 13.7402C9.02344 12.373 9.49512 11.2041 10.4385 10.2334C11.3818 9.2627 12.6146 8.77734 14.1367 8.77734C15.4948 8.77734 16.5544 9.14648 17.3154 9.88477C18.0765 10.623 18.457 11.5801 18.457 12.7559C18.457 14.2871 18.1494 15.5905 17.5342 16.666C16.9189 17.7415 16.1283 18.2793 15.1621 18.2793C14.6152 18.2793 14.1732 18.0811 13.8359 17.6846C13.4987 17.2881 13.3939 16.8164 13.5215 16.2695C13.5944 15.9596 13.7152 15.5381 13.8838 15.0049C14.0524 14.4717 14.1868 14.0068 14.2871 13.6104C14.3874 13.2139 14.4375 12.8743 14.4375 12.5918C14.4375 12.1452 14.3167 11.7738 14.0752 11.4775C13.8337 11.1813 13.4896 11.0332 13.043 11.0332C12.487 11.0332 12.0153 11.2907 11.6279 11.8057C11.2406 12.3206 11.0469 12.9564 11.0469 13.7129C11.0469 14.3691 11.1562 14.9206 11.375 15.3672L10.0352 21.0273C9.81641 21.9388 9.7845 23.0964 9.93945 24.5H7.4375C6.35286 24.5 5.42546 24.1149 4.65527 23.3447C3.88509 22.5745 3.5 21.6471 3.5 20.5625V7.4375C3.5 6.35286 3.88509 5.42546 4.65527 4.65527C5.42546 3.88509 6.35286 3.5 7.4375 3.5H20.5625Z" fill="#EB5728"/>
</svg>
