<svg width="28" height="28" viewBox="0 0 28 28" fill="none" xmlns="http://www.w3.org/2000/svg">
<path fill-rule="evenodd" clip-rule="evenodd" d="M4 5.75446C4 5.28915 4.18484 4.84289 4.51387 4.51387C4.84289 4.18485 5.28914 4 5.75445 4H23.2436C23.4742 3.99963 23.7026 4.04474 23.9158 4.13275C24.1289 4.22076 24.3226 4.34995 24.4857 4.51291C24.6489 4.67588 24.7783 4.86942 24.8665 5.08247C24.9548 5.29551 25.0001 5.52386 25 5.75446V23.2436C25.0002 23.4743 24.955 23.7027 24.8669 23.9158C24.7788 24.129 24.6495 24.3227 24.4865 24.4858C24.3234 24.6489 24.1298 24.7783 23.9167 24.8665C23.7036 24.9548 23.4752 25.0001 23.2446 25H5.75445C5.52398 25 5.29576 24.9546 5.08283 24.8664C4.86991 24.7781 4.67646 24.6488 4.51353 24.4858C4.3506 24.3228 4.22139 24.1293 4.13328 23.9163C4.04516 23.7033 3.99987 23.4751 4 23.2446V5.75446ZM12.3122 12.0067H15.1558V13.4347C15.5662 12.6138 16.6162 11.875 18.1941 11.875C21.219 11.875 21.9359 13.5101 21.9359 16.5103V22.0676H18.8747V17.1937C18.8747 15.4851 18.4642 14.521 17.4219 14.521C15.9757 14.521 15.3744 15.5605 15.3744 17.1937V22.0676H12.3122V12.0067ZM7.06218 21.9369H10.1244V11.875H7.06218V21.9359V21.9369ZM10.5625 8.59327C10.5683 8.85546 10.5216 9.11616 10.4253 9.36007C10.3289 9.60399 10.1848 9.8262 10.0014 10.0137C9.81806 10.2011 9.59908 10.3501 9.35734 10.4518C9.11561 10.5535 8.856 10.6059 8.59375 10.6059C8.3315 10.6059 8.07189 10.5535 7.83016 10.4518C7.58842 10.3501 7.36944 10.2011 7.18605 10.0137C7.00266 9.8262 6.85857 9.60399 6.76223 9.36007C6.66588 9.11616 6.61923 8.85546 6.625 8.59327C6.63633 8.07864 6.84873 7.58889 7.21671 7.22893C7.58469 6.86897 8.07899 6.6674 8.59375 6.6674C9.10851 6.6674 9.60281 6.86897 9.97079 7.22893C10.3388 7.58889 10.5512 8.07864 10.5625 8.59327Z" fill="#EB5728"/>
</svg>
