<svg width="28" height="28" viewBox="0 0 28 28" fill="none" xmlns="http://www.w3.org/2000/svg">
<path d="M24.4417 9.68887C24.4299 8.80527 24.2645 7.93044 23.9528 7.10354C23.6826 6.40605 23.2698 5.7726 22.7409 5.24367C22.2119 4.71475 21.5785 4.30196 20.881 4.03171C20.0647 3.72529 19.2024 3.5596 18.3307 3.54171C17.2083 3.49154 16.8525 3.47754 14.0035 3.47754C11.1545 3.47754 10.7893 3.47754 9.67517 3.54171C8.80385 3.55974 7.94191 3.72542 7.126 4.03171C6.4284 4.30178 5.79486 4.71449 5.26591 5.24344C4.73695 5.7724 4.32424 6.40594 4.05417 7.10354C3.74714 7.91919 3.58181 8.78133 3.56533 9.65271C3.51517 10.7762 3.5 11.132 3.5 13.981C3.5 16.83 3.5 17.194 3.56533 18.3094C3.58283 19.182 3.74733 20.043 4.05417 20.8609C4.32469 21.5583 4.73771 22.1915 5.26684 22.7203C5.79597 23.249 6.42957 23.6615 7.12717 23.9315C7.94084 24.2503 8.80293 24.4278 9.67633 24.4565C10.7998 24.5067 11.1557 24.5219 14.0047 24.5219C16.8537 24.5219 17.2188 24.5219 18.333 24.4565C19.2047 24.4394 20.0671 24.2741 20.8833 23.9677C21.5806 23.6971 22.2139 23.2842 22.7428 22.7554C23.2717 22.2265 23.6846 21.5932 23.9552 20.8959C24.262 20.0792 24.4265 19.2182 24.444 18.3444C24.4942 17.222 24.5093 16.8662 24.5093 14.016C24.507 11.167 24.507 10.8054 24.4417 9.68887ZM13.9965 19.3687C11.0168 19.3687 8.603 16.9549 8.603 13.9752C8.603 10.9955 11.0168 8.58171 13.9965 8.58171C15.4269 8.58171 16.7988 9.14995 17.8103 10.1614C18.8218 11.1729 19.39 12.5448 19.39 13.9752C19.39 15.4057 18.8218 16.7775 17.8103 17.789C16.7988 18.8005 15.4269 19.3687 13.9965 19.3687ZM19.6047 9.63987C19.4395 9.64003 19.2759 9.6076 19.1232 9.54445C18.9705 9.4813 18.8318 9.38867 18.715 9.27185C18.5982 9.15504 18.5056 9.01633 18.4424 8.86368C18.3793 8.71102 18.3468 8.54741 18.347 8.38221C18.347 8.21712 18.3795 8.05366 18.4427 7.90114C18.5059 7.74862 18.5985 7.61004 18.7152 7.49331C18.8319 7.37658 18.9705 7.28399 19.123 7.22081C19.2755 7.15764 19.439 7.12512 19.6041 7.12512C19.7692 7.12512 19.9326 7.15764 20.0851 7.22081C20.2377 7.28399 20.3762 7.37658 20.493 7.49331C20.6097 7.61004 20.7023 7.74862 20.7655 7.90114C20.8287 8.05366 20.8612 8.21712 20.8612 8.38221C20.8612 9.07754 20.2988 9.63987 19.6047 9.63987Z" fill="#EB5728"/>
<path d="M13.9957 17.4787C15.9306 17.4787 17.4992 15.9101 17.4992 13.9752C17.4992 12.0403 15.9306 10.4717 13.9957 10.4717C12.0608 10.4717 10.4922 12.0403 10.4922 13.9752C10.4922 15.9101 12.0608 17.4787 13.9957 17.4787Z" fill="#EB5728"/>
<path fill-rule="evenodd" clip-rule="evenodd" d="M6.5 3.5C4.84315 3.5 3.5 4.84315 3.5 6.5V21.5C3.5 23.1569 4.84315 24.5 6.5 24.5H21.5C23.1569 24.5 24.5 23.1569 24.5 21.5V6.5C24.5 4.84315 23.1569 3.5 21.5 3.5H6.5ZM7.66406 4.66699C6.00721 4.66699 4.66406 6.01013 4.66406 7.66699V20.3337C4.66406 21.9905 6.0072 23.3337 7.66406 23.3337H20.3307C21.9876 23.3337 23.3307 21.9905 23.3307 20.3337V7.66699C23.3307 6.01014 21.9876 4.66699 20.3307 4.66699H7.66406Z" fill="#EB5728"/>
</svg>
